<?xml version="1.0" encoding="UTF-8"?>
<svg id="Layer_2" data-name="Layer 2" xmlns="http://www.w3.org/2000/svg" viewBox="0 0 270.03 167.03">
  <g id="Layer_4" data-name="Layer 4">
    <g>
      <g>
        <path d="M0,.94h34.06v6.77H7.34v12.96h22.54v6.77H7.34v20.59H0V.94Z"/>
        <path d="M39.89,29.45V.94h7.34v28.51c0,7.92,4.25,12.75,12.53,12.75s12.53-4.82,12.53-12.75V.94h7.13v28.51c0,11.88-6.98,19.51-19.66,19.51s-19.87-7.56-19.87-19.51Z"/>
        <path d="M86.83,19.51c0-11.95,7.13-19.51,19.87-19.51s19.95,7.56,19.95,19.51v28.51h-7.34v-28.51c0-7.92-4.32-12.75-12.6-12.75s-12.53,4.82-12.53,12.75v28.51h-7.34v-28.51Z"/>
      </g>
      <g>
        <path d="M62.59,84.48c0-14.11,10.37-24.48,25.06-24.48,12.02,0,21.24,7.06,24.12,17.43h-7.78c-2.52-6.41-8.5-10.66-16.34-10.66-10.44,0-17.64,7.49-17.64,17.71s7.2,17.71,17.64,17.71c7.85,0,13.83-4.25,16.34-10.66h7.78c-2.88,10.37-12.1,17.43-24.12,17.43-14.69,0-25.06-10.37-25.06-24.48Z"/>
        <path d="M119.18,60.94h7.34v47.09h-7.34v-47.09Z"/>
        <path d="M133.94,84.48c0-14.11,10.37-24.48,25.06-24.48s25.06,10.37,25.06,24.48-10.37,24.48-25.06,24.48-25.06-10.37-25.06-24.48ZM176.64,84.48c0-10.23-7.2-17.71-17.64-17.71s-17.64,7.49-17.64,17.71,7.2,17.71,17.64,17.71,17.64-7.49,17.64-17.71Z"/>
      </g>
      <g>
        <path d="M139.49,138.51c0-11.95,7.13-19.51,19.87-19.51s19.95,7.56,19.95,19.51v28.51h-7.34v-28.51c0-7.92-4.32-12.75-12.6-12.75s-12.53,4.82-12.53,12.75v28.51h-7.34v-28.51Z"/>
        <path d="M186.72,139.31c0-12.46,7.2-20.31,20.38-20.31s20.59,7.85,20.59,20.31v27.72h-7.34v-14.91h-26.5v14.91h-7.13v-27.72ZM220.35,145.35v-6.05c0-8.5-4.46-13.54-13.25-13.54s-13.25,5.04-13.25,13.54v6.05h26.5Z"/>
        <path d="M236.26,119.94h7.34v40.32h26.43v6.77h-33.77v-47.09Z"/>
      </g>
    </g>
  </g>
</svg>