<?xml version="1.0" encoding="UTF-8"?>
<svg id="Layer_2" data-name="Layer 2" xmlns="http://www.w3.org/2000/svg" xmlns:xlink="http://www.w3.org/1999/xlink" viewBox="0 0 1024 600">
  <defs>
    <style>
      .cls-1 {
        fill: none;
      }

      .cls-2 {
        fill: url(#inovaPattern);
      }

      .cls-3 {
        fill: #af1510;
      }

      .cls-4 {
        fill: #999;
      }
    </style>
    <pattern id="inovaPattern" x="0" y="0" width="240" height="240" patternTransform="translate(-5348 300)" patternUnits="userSpaceOnUse" viewBox="0 0 240 240">
      <g>
        <rect class="cls-1" width="240" height="240"/>
        <g id="Isotype_Inovac_Black" data-name="Isotype Inovac Black">
          <polygon id="letter_I" data-name="letter I" class="cls-3" points="41.85 233.04 45.56 233.04 45.56 229.48 41.85 229.48 38.15 229.48 34.45 229.48 34.45 233.04 38.15 233.04 38.15 233.04 38.15 273.62 38.15 273.62 34.45 273.62 34.45 277.18 38.15 277.18 41.85 277.18 45.56 277.18 45.56 273.62 41.85 273.62 41.85 273.62 41.85 233.04 41.85 233.04"/>
          <g id="Parentesis_Right" data-name="Parentesis Right">
            <polygon class="cls-4" points="56.66 229.48 56.66 256.55 52.96 254.4 52.96 233.04 49.26 233.04 49.26 229.48 56.66 229.48"/>
          </g>
          <g id="Parentesis_Left" data-name="Parentesis Left">
            <polygon class="cls-4" points="27.04 233.04 27.04 236.6 27.05 236.6 27.05 239.44 23.35 237.31 23.35 236.6 23.34 236.6 23.34 229.48 30.74 229.48 30.74 233.04 27.04 233.04"/>
          </g>
        </g>
        <g id="Isotype_Inovac_Black-2" data-name="Isotype Inovac Black">
          <polygon id="letter_I-2" data-name="letter I" class="cls-3" points="201.85 206.37 205.56 206.37 205.56 202.81 201.85 202.81 198.15 202.81 194.45 202.81 194.45 206.37 198.15 206.37 198.15 206.37 198.15 246.96 198.15 246.96 194.45 246.96 194.45 250.52 198.15 250.52 201.85 250.52 205.56 250.52 205.56 246.96 201.85 246.96 201.85 246.96 201.85 206.37 201.85 206.37"/>
          <g id="Parentesis_Right-2" data-name="Parentesis Right">
            <polygon class="cls-4" points="216.66 202.82 216.66 229.88 212.96 227.74 212.96 206.38 209.26 206.38 209.26 202.82 216.66 202.82"/>
            <polygon class="cls-4" points="216.66 234.15 216.66 238.42 212.96 236.29 212.96 232.02 216.66 234.15"/>
          </g>
          <g id="Parentesis_Left-2" data-name="Parentesis Left">
            <polygon class="cls-4" points="187.04 206.38 187.04 209.94 187.05 209.94 187.05 212.78 183.35 210.64 183.35 209.94 183.34 209.94 183.34 202.82 190.74 202.82 190.74 206.38 187.04 206.38"/>
            <polygon class="cls-4" points="190.75 246.96 190.75 250.52 183.35 250.52 183.35 223.46 187.05 225.61 187.05 246.96 190.75 246.96"/>
            <polygon class="cls-4" points="187.05 217.06 187.05 221.33 183.35 219.19 183.35 214.91 187.05 217.06"/>
          </g>
        </g>
        <g id="Isotype_Inovac_Black-3" data-name="Isotype Inovac Black">
          <polygon id="letter_I-3" data-name="letter I" class="cls-3" points="121.85 179.71 125.56 179.71 125.56 176.15 121.85 176.15 118.15 176.15 114.45 176.15 114.45 179.71 118.15 179.71 118.15 179.71 118.15 220.29 118.15 220.29 114.45 220.29 114.45 223.85 118.15 223.85 121.85 223.85 125.56 223.85 125.56 220.29 121.85 220.29 121.85 220.29 121.85 179.71 121.85 179.71"/>
          <g id="Parentesis_Right-3" data-name="Parentesis Right">
            <polygon class="cls-4" points="136.66 176.15 136.66 203.21 132.96 201.07 132.96 179.71 129.26 179.71 129.26 176.15 136.66 176.15"/>
            <polygon class="cls-4" points="136.66 207.48 136.66 211.76 132.96 209.62 132.96 205.35 136.66 207.48"/>
            <polygon class="cls-4" points="136.66 216.04 136.66 223.85 129.26 223.85 129.26 220.29 132.96 220.29 132.96 213.9 136.66 216.04"/>
          </g>
          <g id="Parentesis_Left-3" data-name="Parentesis Left">
            <polygon class="cls-4" points="107.04 179.71 107.04 183.27 107.05 183.27 107.05 186.11 103.35 183.97 103.35 183.27 103.34 183.27 103.34 176.15 110.74 176.15 110.74 179.71 107.04 179.71"/>
            <polygon class="cls-4" points="110.75 220.29 110.75 223.85 103.35 223.85 103.35 196.8 107.05 198.94 107.05 220.29 110.75 220.29"/>
            <polygon class="cls-4" points="107.05 190.39 107.05 194.66 103.35 192.53 103.35 188.25 107.05 190.39"/>
          </g>
        </g>
        <g id="Isotype_Inovac_Black-4" data-name="Isotype Inovac Black">
          <polygon id="letter_I-4" data-name="letter I" class="cls-3" points="41.85 153.04 45.56 153.04 45.56 149.48 41.85 149.48 38.15 149.48 34.45 149.48 34.45 153.04 38.15 153.04 38.15 153.04 38.15 193.62 38.15 193.62 34.45 193.62 34.45 197.18 38.15 197.18 41.85 197.18 45.56 197.18 45.56 193.62 41.85 193.62 41.85 193.62 41.85 153.04 41.85 153.04"/>
          <g id="Parentesis_Right-4" data-name="Parentesis Right">
            <polygon class="cls-4" points="56.66 149.48 56.66 176.55 52.96 174.4 52.96 153.04 49.26 153.04 49.26 149.48 56.66 149.48"/>
            <polygon class="cls-4" points="56.66 180.82 56.66 185.09 52.96 182.95 52.96 178.68 56.66 180.82"/>
            <polygon class="cls-4" points="56.66 189.37 56.66 197.19 49.26 197.19 49.26 193.63 52.96 193.63 52.96 187.23 56.66 189.37"/>
          </g>
          <g id="Parentesis_Left-4" data-name="Parentesis Left">
            <polygon class="cls-4" points="27.04 153.04 27.04 156.6 27.05 156.6 27.05 159.44 23.35 157.31 23.35 156.6 23.34 156.6 23.34 149.48 30.74 149.48 30.74 153.04 27.04 153.04"/>
            <polygon class="cls-4" points="30.75 193.63 30.75 197.19 23.35 197.19 23.35 170.13 27.05 172.27 27.05 193.63 30.75 193.63"/>
            <polygon class="cls-4" points="27.05 163.72 27.05 167.99 23.35 165.86 23.35 161.58 27.05 163.72"/>
          </g>
        </g>
        <g id="Isotype_Inovac_Black-5" data-name="Isotype Inovac Black">
          <polygon id="letter_I-5" data-name="letter I" class="cls-3" points="201.85 126.37 205.56 126.37 205.56 122.81 201.85 122.81 198.15 122.81 194.45 122.81 194.45 126.37 198.15 126.37 198.15 126.37 198.15 166.96 198.15 166.96 194.45 166.96 194.45 170.52 198.15 170.52 201.85 170.52 205.56 170.52 205.56 166.96 201.85 166.96 201.85 166.96 201.85 126.37 201.85 126.37"/>
          <g id="Parentesis_Right-5" data-name="Parentesis Right">
            <polygon class="cls-4" points="216.66 122.82 216.66 149.88 212.96 147.74 212.96 126.38 209.26 126.38 209.26 122.82 216.66 122.82"/>
            <polygon class="cls-4" points="216.66 154.15 216.66 158.42 212.96 156.29 212.96 152.02 216.66 154.15"/>
            <polygon class="cls-4" points="216.66 162.7 216.66 170.52 209.26 170.52 209.26 166.96 212.96 166.96 212.96 160.57 216.66 162.7"/>
          </g>
          <g id="Parentesis_Left-5" data-name="Parentesis Left">
            <polygon class="cls-4" points="187.04 126.38 187.04 129.94 187.05 129.94 187.05 132.78 183.35 130.64 183.35 129.94 183.34 129.94 183.34 122.82 190.74 122.82 190.74 126.38 187.04 126.38"/>
            <polygon class="cls-4" points="190.75 166.96 190.75 170.52 183.35 170.52 183.35 143.46 187.05 145.61 187.05 166.96 190.75 166.96"/>
            <polygon class="cls-4" points="187.05 137.06 187.05 141.33 183.35 139.19 183.35 134.91 187.05 137.06"/>
          </g>
        </g>
        <g id="Isotype_Inovac_Black-6" data-name="Isotype Inovac Black">
          <polygon id="letter_I-6" data-name="letter I" class="cls-3" points="121.85 99.71 125.56 99.71 125.56 96.15 121.85 96.15 118.15 96.15 114.45 96.15 114.45 99.71 118.15 99.71 118.15 99.71 118.15 140.29 118.15 140.29 114.45 140.29 114.45 143.85 118.15 143.85 121.85 143.85 125.56 143.85 125.56 140.29 121.85 140.29 121.85 140.29 121.85 99.71 121.85 99.71"/>
          <g id="Parentesis_Right-6" data-name="Parentesis Right">
            <polygon class="cls-4" points="136.66 96.15 136.66 123.21 132.96 121.07 132.96 99.71 129.26 99.71 129.26 96.15 136.66 96.15"/>
            <polygon class="cls-4" points="136.66 127.48 136.66 131.76 132.96 129.62 132.96 125.35 136.66 127.48"/>
            <polygon class="cls-4" points="136.66 136.04 136.66 143.85 129.26 143.85 129.26 140.29 132.96 140.29 132.96 133.9 136.66 136.04"/>
          </g>
          <g id="Parentesis_Left-6" data-name="Parentesis Left">
            <polygon class="cls-4" points="107.04 99.71 107.04 103.27 107.05 103.27 107.05 106.11 103.35 103.97 103.35 103.27 103.34 103.27 103.34 96.15 110.74 96.15 110.74 99.71 107.04 99.71"/>
            <polygon class="cls-4" points="110.75 140.29 110.75 143.85 103.35 143.85 103.35 116.8 107.05 118.94 107.05 140.29 110.75 140.29"/>
            <polygon class="cls-4" points="107.05 110.39 107.05 114.66 103.35 112.53 103.35 108.25 107.05 110.39"/>
          </g>
        </g>
        <g id="Isotype_Inovac_Black-7" data-name="Isotype Inovac Black">
          <polygon id="letter_I-7" data-name="letter I" class="cls-3" points="41.85 73.04 45.56 73.04 45.56 69.48 41.85 69.48 38.15 69.48 34.45 69.48 34.45 73.04 38.15 73.04 38.15 73.04 38.15 113.62 38.15 113.62 34.45 113.62 34.45 117.18 38.15 117.18 41.85 117.18 45.56 117.18 45.56 113.62 41.85 113.62 41.85 113.62 41.85 73.04 41.85 73.04"/>
          <g id="Parentesis_Right-7" data-name="Parentesis Right">
            <polygon class="cls-4" points="56.66 69.48 56.66 96.55 52.96 94.4 52.96 73.04 49.26 73.04 49.26 69.48 56.66 69.48"/>
            <polygon class="cls-4" points="56.66 100.82 56.66 105.09 52.96 102.95 52.96 98.68 56.66 100.82"/>
            <polygon class="cls-4" points="56.66 109.37 56.66 117.19 49.26 117.19 49.26 113.63 52.96 113.63 52.96 107.23 56.66 109.37"/>
          </g>
          <g id="Parentesis_Left-7" data-name="Parentesis Left">
            <polygon class="cls-4" points="27.04 73.04 27.04 76.6 27.05 76.6 27.05 79.44 23.35 77.31 23.35 76.6 23.34 76.6 23.34 69.48 30.74 69.48 30.74 73.04 27.04 73.04"/>
            <polygon class="cls-4" points="30.75 113.63 30.75 117.19 23.35 117.19 23.35 90.13 27.05 92.27 27.05 113.63 30.75 113.63"/>
            <polygon class="cls-4" points="27.05 83.72 27.05 87.99 23.35 85.86 23.35 81.58 27.05 83.72"/>
          </g>
        </g>
        <g id="Isotype_Inovac_Black-8" data-name="Isotype Inovac Black">
          <polygon id="letter_I-8" data-name="letter I" class="cls-3" points="201.85 46.37 205.56 46.37 205.56 42.81 201.85 42.81 198.15 42.81 194.45 42.81 194.45 46.37 198.15 46.37 198.15 46.37 198.15 86.96 198.15 86.96 194.45 86.96 194.45 90.52 198.15 90.52 201.85 90.52 205.56 90.52 205.56 86.96 201.85 86.96 201.85 86.96 201.85 46.37 201.85 46.37"/>
          <g id="Parentesis_Right-8" data-name="Parentesis Right">
            <polygon class="cls-4" points="216.66 42.82 216.66 69.88 212.96 67.74 212.96 46.38 209.26 46.38 209.26 42.82 216.66 42.82"/>
            <polygon class="cls-4" points="216.66 74.15 216.66 78.42 212.96 76.29 212.96 72.02 216.66 74.15"/>
            <polygon class="cls-4" points="216.66 82.7 216.66 90.52 209.26 90.52 209.26 86.96 212.96 86.96 212.96 80.57 216.66 82.7"/>
          </g>
          <g id="Parentesis_Left-8" data-name="Parentesis Left">
            <polygon class="cls-4" points="187.04 46.38 187.04 49.94 187.05 49.94 187.05 52.78 183.35 50.64 183.35 49.94 183.34 49.94 183.34 42.82 190.74 42.82 190.74 46.38 187.04 46.38"/>
            <polygon class="cls-4" points="190.75 86.96 190.75 90.52 183.35 90.52 183.35 63.46 187.05 65.61 187.05 86.96 190.75 86.96"/>
            <polygon class="cls-4" points="187.05 57.06 187.05 61.33 183.35 59.19 183.35 54.91 187.05 57.06"/>
          </g>
        </g>
        <g id="Isotype_Inovac_Black-9" data-name="Isotype Inovac Black">
          <polygon id="letter_I-9" data-name="letter I" class="cls-3" points="121.85 19.71 125.56 19.71 125.56 16.15 121.85 16.15 118.15 16.15 114.45 16.15 114.45 19.71 118.15 19.71 118.15 19.71 118.15 60.29 118.15 60.29 114.45 60.29 114.45 63.85 118.15 63.85 121.85 63.85 125.56 63.85 125.56 60.29 121.85 60.29 121.85 60.29 121.85 19.71 121.85 19.71"/>
          <g id="Parentesis_Right-9" data-name="Parentesis Right">
            <polygon class="cls-4" points="136.66 16.15 136.66 43.21 132.96 41.07 132.96 19.71 129.26 19.71 129.26 16.15 136.66 16.15"/>
            <polygon class="cls-4" points="136.66 47.48 136.66 51.76 132.96 49.62 132.96 45.35 136.66 47.48"/>
            <polygon class="cls-4" points="136.66 56.04 136.66 63.85 129.26 63.85 129.26 60.29 132.96 60.29 132.96 53.9 136.66 56.04"/>
          </g>
          <g id="Parentesis_Left-9" data-name="Parentesis Left">
            <polygon class="cls-4" points="107.04 19.71 107.04 23.27 107.05 23.27 107.05 26.11 103.35 23.97 103.35 23.27 103.34 23.27 103.34 16.15 110.74 16.15 110.74 19.71 107.04 19.71"/>
            <polygon class="cls-4" points="110.75 60.29 110.75 63.85 103.35 63.85 103.35 36.8 107.05 38.94 107.05 60.29 110.75 60.29"/>
            <polygon class="cls-4" points="107.05 30.39 107.05 34.66 103.35 32.53 103.35 28.25 107.05 30.39"/>
          </g>
        </g>
        <g id="Isotype_Inovac_Black-10" data-name="Isotype Inovac Black">
          <polygon id="letter_I-10" data-name="letter I" class="cls-3" points="41.85 -6.96 45.56 -6.96 45.56 -10.52 41.85 -10.52 38.15 -10.52 34.45 -10.52 34.45 -6.96 38.15 -6.96 38.15 -6.96 38.15 33.62 38.15 33.62 34.45 33.62 34.45 37.18 38.15 37.18 41.85 37.18 45.56 37.18 45.56 33.62 41.85 33.62 41.85 33.62 41.85 -6.96 41.85 -6.96"/>
          <g id="Parentesis_Right-10" data-name="Parentesis Right">
            <polygon class="cls-4" points="56.66 -10.52 56.66 16.55 52.96 14.4 52.96 -6.96 49.26 -6.96 49.26 -10.52 56.66 -10.52"/>
            <polygon class="cls-4" points="56.66 20.82 56.66 25.09 52.96 22.95 52.96 18.68 56.66 20.82"/>
            <polygon class="cls-4" points="56.66 29.37 56.66 37.19 49.26 37.19 49.26 33.63 52.96 33.63 52.96 27.23 56.66 29.37"/>
          </g>
          <g id="Parentesis_Left-10" data-name="Parentesis Left">
            <polygon class="cls-4" points="30.75 33.63 30.75 37.19 23.35 37.19 23.35 10.13 27.05 12.27 27.05 33.63 30.75 33.63"/>
            <polygon class="cls-4" points="27.05 3.72 27.05 7.99 23.35 5.86 23.35 1.58 27.05 3.72"/>
          </g>
        </g>
        <g id="Isotype_Inovac_Black-11" data-name="Isotype Inovac Black">
          <polygon id="letter_I-11" data-name="letter I" class="cls-3" points="201.85 -33.63 205.56 -33.63 205.56 -37.19 201.85 -37.19 198.15 -37.19 194.45 -37.19 194.45 -33.63 198.15 -33.63 198.15 -33.63 198.15 6.96 198.15 6.96 194.45 6.96 194.45 10.52 198.15 10.52 201.85 10.52 205.56 10.52 205.56 6.96 201.85 6.96 201.85 6.96 201.85 -33.63 201.85 -33.63"/>
          <g id="Parentesis_Right-11" data-name="Parentesis Right">
            <polygon class="cls-4" points="216.66 2.7 216.66 10.52 209.26 10.52 209.26 6.96 212.96 6.96 212.96 .57 216.66 2.7"/>
          </g>
          <g id="Parentesis_Left-11" data-name="Parentesis Left">
            <polygon class="cls-4" points="190.75 6.96 190.75 10.52 183.35 10.52 183.35 -16.54 187.05 -14.39 187.05 6.96 190.75 6.96"/>
          </g>
        </g>
      </g>
    </pattern>
  </defs>
  <g id="Layer_4" data-name="Layer 4">
    <rect class="cls-2" width="1024" height="600"/>
  </g>
</svg>