<?xml version="1.0" encoding="UTF-8"?>
<svg id="Layer_2" data-name="Layer 2" xmlns="http://www.w3.org/2000/svg" viewBox="0 0 46.8 67">
  <defs>
    <style>
      .cls-1 {
        fill: #bc0008;
      }

      .cls-2 {
        fill: #989898;
      }
    </style>
  </defs>
  <g id="Layer_4" data-name="Layer 4">
    <g>
      <polygon id="letter_I" data-name="letter I" class="cls-1" points="26 5 31.2 5 31.2 0 26 0 20.8 0 15.6 0 15.6 5 20.8 5 20.8 5 20.8 62 20.8 62 15.6 62 15.6 67 20.8 67 26 67 31.2 67 31.2 62 26 62 26 62 26 5 26 5"/>
      <g id="Parentesis_Right" data-name="Parentesis Right">
        <polygon class="cls-2" points="46.8 0 46.8 38.01 41.6 35 41.6 5 36.4 5 36.4 0 46.8 0"/>
        <polygon class="cls-2" points="46.8 44.01 46.8 50.01 41.6 47.01 41.6 41.01 46.8 44.01"/>
        <polygon class="cls-2" points="46.8 56.02 46.8 67 36.4 67 36.4 62 41.6 62 41.6 53.02 46.8 56.02"/>
      </g>
      <g id="Parentesis_Left" data-name="Parentesis Left">
        <polygon class="cls-2" points="5.2 5 5.2 10 5.21 10 5.21 13.99 0 10.99 0 10 0 10 0 0 10.4 0 10.4 5 5.2 5"/>
        <polygon class="cls-2" points="10.41 62 10.41 67 0 67 0 29 5.21 32.01 5.21 62 10.41 62"/>
        <polygon class="cls-2" points="5.21 20 5.21 26 0 23 0 16.99 5.21 20"/>
      </g>
    </g>
  </g>
</svg>