<?xml version="1.0" encoding="UTF-8"?>
<svg id="Layer_2" data-name="Layer 2" xmlns="http://www.w3.org/2000/svg" viewBox="0 0 315.7 85.68">
  <defs>
    <style>
      .cls-1 {
        stroke: #000;
        stroke-miterlimit: 10;
      }
    </style>
  </defs>
  <g id="new_logo" data-name="new logo">
    <g id="logo_Inovac_Black" data-name="logo Inovac Black">
      <g id="construcciones">
        <path class="cls-1" d="M80.84,84.09c-1.16-.66-2.09-1.57-2.77-2.72-.68-1.15-1.02-2.45-1.02-3.9,0-1.34.34-2.59,1.02-3.73.68-1.14,1.62-2.05,2.8-2.74s2.49-1.02,3.92-1.02c1.2,0,2.22.19,3.07.58s1.69.98,2.5,1.79v1.73c-.7-1.05-1.49-1.84-2.35-2.38-.87-.54-1.94-.82-3.22-.82-1.17,0-2.28.3-3.31.91-1.04.61-1.86,1.42-2.48,2.45-.62,1.02-.93,2.12-.93,3.3,0,1.28.3,2.43.9,3.44.6,1.01,1.4,1.8,2.42,2.37s2.11.85,3.28.85c2.39,0,4.29-1.08,5.7-3.23v1.73c-.77.81-1.62,1.41-2.54,1.81-.93.39-1.98.59-3.15.59-1.39,0-2.66-.33-3.82-.99Z"/>
        <path class="cls-1" d="M98.04,84.1c-1.17-.71-2.09-1.66-2.75-2.85-.66-1.18-.99-2.47-.99-3.86s.34-2.63,1.01-3.81c.67-1.17,1.59-2.11,2.75-2.8,1.16-.69,2.46-1.04,3.89-1.04s2.69.35,3.86,1.04c1.16.69,2.07,1.63,2.74,2.8.66,1.17.99,2.44.99,3.81s-.32,2.74-.96,3.92c-.64,1.18-1.53,2.12-2.67,2.82s-2.45,1.04-3.92,1.04-2.76-.36-3.94-1.07ZM105.3,83.35c1-.62,1.79-1.44,2.35-2.48.57-1.04.85-2.17.85-3.41s-.29-2.35-.86-3.39c-.58-1.05-1.37-1.88-2.37-2.5-1-.62-2.11-.93-3.33-.93s-2.33.32-3.34.94c-1.01.63-1.81,1.47-2.4,2.51-.59,1.05-.88,2.18-.88,3.39s.29,2.34.88,3.38c.59,1.04,1.39,1.86,2.4,2.48,1.01.62,2.14.93,3.38.93s2.33-.31,3.33-.93Z"/>
        <path class="cls-1" d="M114.01,70.26h1.02v3.2c.47-1.07,1.27-1.92,2.4-2.58,1.13-.65,2.38-.98,3.74-.98,1.77,0,3.17.56,4.21,1.68,1.03,1.12,1.55,2.68,1.55,4.69v8.38h-1.02v-8.38c0-1.73-.42-3.07-1.26-4.03s-2.02-1.44-3.54-1.44c-1.11,0-2.13.25-3.06.75-.93.5-1.66,1.19-2.21,2.06s-.82,1.87-.82,2.98v8.06h-1.02v-14.4Z"/>
        <path class="cls-1" d="M133.33,84.49c-.79-.35-1.35-.81-1.7-1.36v-1.7c.4.92.96,1.59,1.66,2.03.7.44,1.6.66,2.69.66s1.89-.33,2.53-.98c.64-.65.96-1.49.96-2.51,0-.88-.18-1.55-.54-2.03-.36-.48-.95-.96-1.76-1.46l-1.21-.7c-.88-.53-1.53-.95-1.97-1.26-.44-.31-.78-.66-1.04-1.06s-.38-.86-.38-1.39c0-.85.3-1.54.9-2.05.6-.51,1.38-.77,2.34-.77,1.17,0,2.15.27,2.94.8v1.41c-.66-.88-1.61-1.31-2.85-1.31-.68,0-1.24.17-1.66.51-.43.34-.64.78-.64,1.31,0,.47.13.88.38,1.23.26.35.61.68,1.07.98.46.3,1.22.75,2.29,1.34,1.09.62,1.89,1.25,2.4,1.9.51.65.77,1.5.77,2.54,0,1.32-.43,2.38-1.3,3.18-.86.8-1.92,1.2-3.15,1.2-1.02,0-1.93-.18-2.72-.53Z"/>
        <path class="cls-1" d="M146.53,83.42c-1.04-.96-1.55-2.28-1.55-3.97v-14.98h1.02v5.79h4.42v.9h-4.42v8.29c0,1.41.42,2.51,1.26,3.31.84.8,1.9,1.2,3.18,1.2v.9c-1.58,0-2.89-.48-3.92-1.44Z"/>
        <path class="cls-1" d="M154.74,70.26h1.02v3.33c.43-1.04,1.05-1.87,1.87-2.46.82-.6,1.75-.9,2.8-.9.66,0,1.33.14,2.02.42v1.18c-.62-.47-1.31-.7-2.08-.7s-1.51.24-2.22.7c-.71.47-1.29,1.1-1.73,1.89-.44.79-.66,1.63-.66,2.53v8.42h-1.02v-14.4Z"/>
        <path class="cls-1" d="M168.23,83.35c-1.1-1.11-1.65-2.68-1.65-4.7v-8.38h1.02v8.38c0,1.75.46,3.1,1.39,4.05s2.23,1.42,3.92,1.42c1.02,0,1.96-.23,2.82-.69.85-.46,1.52-1.1,2.02-1.94.49-.83.74-1.78.74-2.85v-8.38h1.02v14.4h-1.02v-2.69c-.49.9-1.23,1.63-2.21,2.19-.98.56-2.1.85-3.36.85-2.03,0-3.59-.55-4.69-1.66Z"/>
        <path class="cls-1" d="M188.1,84.09c-1.16-.66-2.08-1.57-2.77-2.72-.68-1.15-1.02-2.45-1.02-3.9,0-1.34.34-2.59,1.02-3.73.68-1.14,1.62-2.05,2.8-2.74,1.18-.68,2.49-1.02,3.92-1.02,1.19,0,2.22.19,3.07.58.85.38,1.68.98,2.5,1.79v1.73c-.7-1.05-1.49-1.84-2.35-2.38-.86-.54-1.94-.82-3.21-.82-1.17,0-2.28.3-3.31.91-1.04.61-1.86,1.42-2.48,2.45-.62,1.02-.93,2.12-.93,3.3,0,1.28.3,2.43.9,3.44.6,1.01,1.4,1.8,2.42,2.37,1.01.57,2.11.85,3.28.85,2.39,0,4.29-1.08,5.7-3.23v1.73c-.77.81-1.62,1.41-2.54,1.81-.93.39-1.98.59-3.15.59-1.39,0-2.66-.33-3.82-.99Z"/>
        <path class="cls-1" d="M205.35,84.09c-1.16-.66-2.09-1.57-2.77-2.72-.68-1.15-1.02-2.45-1.02-3.9,0-1.34.34-2.59,1.02-3.73.68-1.14,1.62-2.05,2.8-2.74s2.49-1.02,3.92-1.02c1.2,0,2.22.19,3.07.58s1.69.98,2.5,1.79v1.73c-.7-1.05-1.49-1.84-2.35-2.38-.87-.54-1.94-.82-3.22-.82-1.17,0-2.28.3-3.31.91-1.04.61-1.86,1.42-2.48,2.45-.62,1.02-.93,2.12-.93,3.3,0,1.28.3,2.43.9,3.44.6,1.01,1.4,1.8,2.42,2.37s2.11.85,3.28.85c2.39,0,4.29-1.08,5.7-3.23v1.73c-.77.81-1.62,1.41-2.54,1.81-.93.39-1.98.59-3.15.59-1.39,0-2.66-.33-3.82-.99Z"/>
        <path class="cls-1" d="M219.78,66.65c-.22-.21-.34-.48-.34-.8,0-.3.11-.55.34-.77.22-.21.48-.32.78-.32s.56.11.78.32.34.47.34.77c0,.32-.11.59-.34.8-.22.21-.49.32-.78.32s-.56-.11-.78-.32ZM220.05,70.26h1.02v14.4h-1.02v-14.4Z"/>
        <path class="cls-1" d="M230.36,84.1c-1.17-.71-2.09-1.66-2.75-2.85s-.99-2.47-.99-3.86.34-2.63,1.01-3.81c.67-1.17,1.59-2.11,2.75-2.8,1.16-.69,2.46-1.04,3.89-1.04s2.69.35,3.86,1.04c1.16.69,2.07,1.63,2.74,2.8.66,1.17.99,2.44.99,3.81s-.32,2.74-.96,3.92c-.64,1.18-1.53,2.12-2.67,2.82-1.14.69-2.45,1.04-3.92,1.04s-2.76-.36-3.94-1.07ZM237.62,83.35c1-.62,1.79-1.44,2.35-2.48.56-1.04.85-2.17.85-3.41s-.29-2.35-.86-3.39c-.58-1.05-1.37-1.88-2.37-2.5-1-.62-2.11-.93-3.33-.93s-2.33.32-3.34.94c-1.01.63-1.81,1.47-2.4,2.51-.59,1.05-.88,2.18-.88,3.39s.29,2.34.88,3.38,1.39,1.86,2.4,2.48c1.01.62,2.14.93,3.38.93s2.32-.31,3.33-.93Z"/>
        <path class="cls-1" d="M246.32,70.26h1.02v3.2c.47-1.07,1.27-1.92,2.4-2.58,1.13-.65,2.38-.98,3.74-.98,1.77,0,3.17.56,4.21,1.68,1.03,1.12,1.55,2.68,1.55,4.69v8.38h-1.02v-8.38c0-1.73-.42-3.07-1.26-4.03-.84-.96-2.02-1.44-3.54-1.44-1.11,0-2.13.25-3.06.75-.93.5-1.66,1.19-2.21,2.06-.54.88-.82,1.87-.82,2.98v8.06h-1.02v-14.4Z"/>
        <path class="cls-1" d="M275.06,83.29c1-.58,1.83-1.37,2.5-2.37v1.63c-.79.88-1.65,1.51-2.59,1.9-.94.39-2.01.59-3.2.59-1.32,0-2.57-.35-3.73-1.06-1.16-.7-2.09-1.64-2.79-2.82-.69-1.17-1.04-2.42-1.04-3.74,0-1.43.34-2.71,1.02-3.86s1.62-2.03,2.8-2.67c1.18-.64,2.5-.96,3.95-.96,2.22,0,4.11.88,5.66,2.62l-10.05,9.92c.7.58,1.39,1,2.05,1.26s1.41.4,2.24.4c1.11,0,2.17-.29,3.17-.86ZM266.99,81.88l9.38-9.31c-.71-.62-1.39-1.06-2.05-1.33-.66-.27-1.45-.4-2.37-.4-1.3,0-2.46.28-3.47.85-1.01.57-1.81,1.34-2.38,2.32s-.86,2.09-.86,3.33c0,1.77.59,3.29,1.76,4.54Z"/>
        <path class="cls-1" d="M283.22,84.49c-.79-.35-1.36-.81-1.7-1.36v-1.7c.41.92.96,1.59,1.66,2.03.71.44,1.6.66,2.69.66s1.89-.33,2.53-.98c.64-.65.96-1.49.96-2.51,0-.88-.18-1.55-.54-2.03-.36-.48-.95-.96-1.76-1.46l-1.22-.7c-.88-.53-1.53-.95-1.97-1.26-.44-.31-.78-.66-1.04-1.06s-.38-.86-.38-1.39c0-.85.3-1.54.9-2.05s1.38-.77,2.34-.77c1.17,0,2.15.27,2.94.8v1.41c-.66-.88-1.61-1.31-2.85-1.31-.68,0-1.24.17-1.66.51-.43.34-.64.78-.64,1.31,0,.47.13.88.38,1.23.26.35.61.68,1.07.98s1.22.75,2.29,1.34c1.09.62,1.89,1.25,2.4,1.9.51.65.77,1.5.77,2.54,0,1.32-.43,2.38-1.3,3.18-.86.8-1.91,1.2-3.15,1.2-1.02,0-1.93-.18-2.72-.53Z"/>
      </g>
      <path id="letter_N" data-name="letter N" d="M89.29,14.47c-3.42-3.7-8.09-5.57-13.88-5.57-4.42,0-8.53,1.07-12.2,3.18-2.47,1.42-4.48,3.17-6,5.22v-7.3h-5.2v47h5.2v-26.2c0-3.26.81-6.21,2.4-8.77,1.6-2.57,3.79-4.62,6.53-6.1,2.74-1.48,5.79-2.23,9.07-2.23,4.47,0,7.84,1.36,10.3,4.16,2.46,2.8,3.7,6.82,3.7,11.94v27.2h5.2v-27.2c0-6.5-1.72-11.65-5.12-15.33Z"/>
      <path id="letter_O" data-name="letter O" d="M152.78,20.91c-2.15-3.8-5.14-6.87-8.91-9.12-3.78-2.25-8-3.39-12.56-3.39s-8.89,1.14-12.66,3.39c-3.76,2.24-6.78,5.31-8.96,9.11-2.18,3.8-3.28,7.97-3.28,12.4s1.09,8.71,3.23,12.54c2.14,3.83,5.15,6.95,8.95,9.27,3.81,2.32,8.12,3.5,12.82,3.5s9.06-1.14,12.77-3.4c3.7-2.25,6.63-5.34,8.71-9.18,2.07-3.83,3.12-8.11,3.12-12.73s-1.09-8.58-3.23-12.39ZM150.8,33.5c0,3.68-.85,7.1-2.53,10.17-1.67,3.06-4.03,5.55-7,7.38h0c-2.96,1.83-6.28,2.75-9.87,2.75s-7.04-.93-10.03-2.75c-3-1.83-5.41-4.32-7.15-7.39-1.74-3.06-2.62-6.45-2.62-10.06s.88-7.01,2.62-10.11c1.74-3.1,4.15-5.62,7.16-7.49,2.99-1.86,6.33-2.8,9.92-2.8s6.92.93,9.87,2.75c2.97,1.83,5.34,4.33,7.05,7.43,1.71,3.1,2.58,6.5,2.58,10.12Z"/>
      <polygon id="letter_V" data-name="letter V" points="201.37 10 183.4 47.68 165.33 10 159.61 10 183.41 59.62 207.09 10 201.37 10"/>
      <path id="letter_A" data-name="letter A" d="M254.9,10v8.44c-1.64-2.32-3.84-4.31-6.59-5.95-4-2.38-8.32-3.59-12.81-3.59s-8.6,1.12-12.4,3.34c-3.8,2.21-6.85,5.24-9.06,9.01-2.21,3.77-3.34,7.9-3.34,12.26s1.12,8.49,3.34,12.26c2.21,3.77,5.26,6.8,9.06,9.01,3.8,2.21,7.98,3.34,12.4,3.34s8.66-1.17,12.56-3.49c2.79-1.65,5.08-3.72,6.84-6.17v8.56h5.2V10h-5.2ZM255.1,33.5c0,3.54-.88,6.85-2.62,9.85-1.74,3-4.13,5.44-7.1,7.25-2.96,1.79-6.22,2.71-9.68,2.71s-6.76-.91-9.79-2.71c-3.04-1.81-5.5-4.25-7.3-7.26-1.8-2.99-2.71-6.27-2.71-9.73s.91-6.76,2.71-9.79c1.81-3.04,4.25-5.52,7.26-7.36,2.99-1.83,6.27-2.75,9.73-2.75s6.72.91,9.68,2.7c2.97,1.8,5.38,4.26,7.15,7.3,1.77,3.03,2.67,6.33,2.67,9.8Z"/>
      <path id="letter_C" data-name="letter C" d="M315.7,50.2l-.27.29c-2.48,2.62-5.27,4.6-8.28,5.88-3.01,1.28-6.46,1.93-10.24,1.93-4.49,0-8.67-1.09-12.44-3.23-3.77-2.14-6.8-5.12-9.02-8.86-2.22-3.74-3.34-8.01-3.34-12.71,0-4.37,1.12-8.46,3.34-12.16,2.21-3.69,5.28-6.69,9.11-8.9,3.84-2.21,8.13-3.33,12.75-3.33,3.86,0,7.22.76,10,2.02,2.76,1.24,5.5,3.07,8.11,5.68l.29.29s-3.44,3.75-3.44,3.75c-3.49-3.74-8.09-6.43-13.25-6.86-.57-.05-1.14-.07-1.71-.07-3.47,0-6.78.91-9.84,2.71-3.07,1.81-5.56,4.26-7.4,7.3-1.83,3.03-2.76,6.32-2.76,9.78,0,3.8.9,7.25,2.66,10.24,1.77,3,4.18,5.36,7.17,7.03,3,1.67,6.28,2.52,9.76,2.52,7.17,0,10.98-1.72,15.75-6.79l3.05,3.49Z"/>
      <polygon id="letter_I" data-name="letter I" points="26 5 31.2 5 31.2 0 26 0 20.8 0 15.6 0 15.6 5 20.8 5 20.8 5 20.8 62 20.8 62 15.6 62 15.6 67 20.8 67 26 67 31.2 67 31.2 62 26 62 26 62 26 5 26 5"/>
      <g id="Parentesis_Right" data-name="Parentesis Right">
        <polygon points="46.8 0 46.8 38.01 41.6 35 41.6 5 36.4 5 36.4 0 46.8 0"/>
        <polygon points="46.8 44.01 46.8 50.01 41.6 47.01 41.6 41.01 46.8 44.01"/>
        <polygon points="46.8 56.02 46.8 67 36.4 67 36.4 62 41.6 62 41.6 53.02 46.8 56.02"/>
      </g>
      <g id="Parentesis_Left" data-name="Parentesis Left">
        <polygon points="5.2 5 5.2 10 5.21 10 5.21 13.99 0 10.99 0 10 0 10 0 0 10.4 0 10.4 5 5.2 5"/>
        <polygon points="10.41 62 10.41 67 0 67 0 29 5.21 32.01 5.21 62 10.41 62"/>
        <polygon points="5.21 20 5.21 26 0 23 0 16.99 5.21 20"/>
      </g>
    </g>
  </g>
</svg>