<?xml version="1.0" encoding="UTF-8"?>
<svg id="Layer_2" data-name="Layer 2" xmlns="http://www.w3.org/2000/svg" viewBox="0 0 49.11 360.5">
  <g id="Layer_4" data-name="Layer 4">
    <g>
      <path d="M14.69,352.15c-5.9,3.53-12.03,6.98-12.03,6.98v.14s6.55-.07,13.11-.07h32.47v1.3H.86v-1.66s34.92-20.81,34.92-20.81v-.14S.86,317.08.86,317.08v-1.66h47.38v1.3H15.77c-6.55,0-13.11-.07-13.11-.07v.14s6.12,3.46,12.03,6.98l23.33,13.9v.58s-23.33,13.9-23.33,13.9Z"/>
      <path d="M24.34,254.52c14.19,0,24.77,10.01,24.77,24.34s-9.87,24.34-24.77,24.34c-13.83,0-24.34-10.66-24.34-24.34s10.51-24.34,24.34-24.34ZM24.34,301.9c14.19,0,23.47-10.01,23.47-23.04s-10.01-23.04-23.47-23.04c-13.1,0-23.04,10.08-23.04,23.04s9.94,23.04,23.04,23.04Z"/>
      <path d="M.86,229.1c0-19.51,10.3-26.57,23.69-26.57,15.77,0,23.69,8.5,23.69,23.83v15.91H.86v-13.18ZM46.95,240.98v-14.62c0-14.47-7.49-22.54-22.39-22.54-12.67,0-22.39,6.77-22.39,25.27v11.88s44.79,0,44.79,0Z"/>
      <path d="M24.12,189h22.83s0-32.04,0-32.04h1.3v33.34H.86v-31.9h1.3v30.6s20.67,0,20.67,0v-27.72h1.3v27.72Z"/>
      <path d="M.86,145.44v-14.98c0-11.52,5.98-16.71,13.46-16.71,5.33,0,11.59,3.02,13.03,11.52h.07s20.81-16.42,20.81-16.42v1.66s-20.67,16.27-20.67,16.27v17.35s20.67,0,20.67,0v1.3H.86ZM26.28,128.38c0-9.58-6.55-13.32-11.95-13.32-6.77,0-12.17,4.75-12.17,15.41v13.68s24.12,0,24.12,0v-15.77Z"/>
      <path d="M.86,62.21v-1.3h47.38v1.3S2.95,98.21,2.95,98.21v.07s6.34-.07,10.8-.07h34.49v1.3H.86v-1.3s45.29-36,45.29-36v-.07s-9.5.07-12.24.07H.86Z"/>
      <path d="M24.34,0c14.19,0,24.77,10.01,24.77,24.34s-9.87,24.34-24.77,24.34C10.51,48.68,0,38.02,0,24.34S10.51,0,24.34,0ZM24.34,47.38c14.19,0,23.47-10.01,23.47-23.04S37.8,1.3,24.34,1.3c-13.1,0-23.04,10.08-23.04,23.04s9.94,23.04,23.04,23.04Z"/>
    </g>
  </g>
</svg>