<?xml version="1.0" encoding="UTF-8"?>
<svg id="Layer_2" data-name="Layer 2" xmlns="http://www.w3.org/2000/svg" viewBox="0 0 193.94 70.79">
  <defs>
    <style>
      .cls-1 {
        fill: #fff;
      }
    </style>
  </defs>
  <g id="Layer_4" data-name="Layer 4">
    <g>
      <path class="cls-1" d="M51.46,18.29c-.07.22-.29.36-.14.65-.58.22-1.01.94-1.66.79-.22.22.29.36.07.58-1.73.29-1.44,2.66-2.02,4.03.29.22.36.94.14,1.15.43,1.8.79,4.39,1.22,6.41,0,.14-.14.14-.22.14.22-.14.14.86.07.5,0,.22.36,1.73.43,3.02,0,1.44.22,3.38-.07,4.75.58.43.29,1.37.29,1.8-.14.14-.22-.07-.43.07.07.36.36.43.5.72-.29.36,0,.72-.36,1.01.07.29.22.5.29.72-.5,1.73.07,3.89-.5,5.54.14.36.22,1.58-.14,1.87.22.36.07,1.08-.07,1.58-.07.22.14.14.22.29-.22,1.15-.07,2.88-.65,3.6.36,1.08-.5,1.73-.29,2.52-.58.43-.36.72-1.01,1.08.14,1.44-1.08,2.23-1.87,2.95-.07.22.07.22.07.43-.43.29-.72.72-1.08,1.01-.36,0-.5-.14-.72-.14,0-.14.07-.22.07-.29-.86.07-.94,1.44-1.94,1.08-.07.14.07.14.07.36-.36-.07-.36.29-.58.5-2.16.5-4.32,2.09-6.41,1.66-.36.58-.58.94-1.44,1.08-.14.07-.14-.07-.14-.22-.79.36-1.87,0-2.52.58-.14-.14-.22-.29-.36-.36-1.73.36-3.24.22-4.46.07-.5.07-1.08.29-1.3-.22-1.3-.07-2.59-1.15-4.1-1.08-.22,0-.14.22-.29.29-.72-.14-1.08-.58-1.58-.79.36-.58-.43-.36-.43-.79-.22-.07-.29.07-.5.07-1.37-.94-3.1-1.44-3.89-2.95-1.51-.86-2.09-2.66-3.1-3.96-.29-1.08-.5-2.38-1.08-3.17,0-.22,0-.43.14-.43-.79-1.22-.14-3.46-.36-4.68.86-1.73.07-3.67.36-5.69-.29-.14-1.01-.07-1.3-.07-.14-1.08,1.01-1.44,1.44-2.16-.07-.43,0-.72.22-.86-.29-.43.07-.94-.36-1.22.36-.79.58-2.52-.14-3.1.36-1.22-.14-3.1-.14-4.61,0-.58.14-1.22.14-1.8,0-.72-.43-1.44-.36-1.94,0-.22.14-.36.22-.58.07-.36-.22-.65-.22-1.01-.07-.65.43-1.22.22-1.87-.22-.14-.22-.5-.43-.72.14-.14.36-.22.43-.43-.14-.22,0-.58-.29-.58.07-.22.29-.29.22-.65-.29-.07-.58.5-.86.36,0,.22.22.29.5.29,0,.29-.72.14-.86.07.36-.65.94-1.08,1.3-1.66.07-.5-.14-.65-.22-.94.29,0,.07-.5.22-.58,0-.29-.22-.36-.22-.58.29-1.44-.86-2.95-1.66-3.96-2.02-.65-5.04-.36-6.91,0-.07-.36-.36-.5-.58-.72-.58-2.09,4.39-1.08,5.98-1.08,2.3,0,3.53-.22,5.54.14,2.02-.22,4.32.22,6.26-.43.07.22-.07.14,0,.36.94-.14,2.38-1.01,3.46-.43,2.88-.65,5.11,0,7.63-.5.36.22.72.36,1.37.29.43.86.43,1.58-.07,2.3h-.65c-.79-1.15-2.52,0-3.38-.79-.07.07-.29,0-.22.22-1.58-.36-2.59.72-3.38,1.66,0,.29.07.36.29.43-.79.14-.94.86-1.87,1.01,0,.58.5.72.65,1.15,0,.86-1.08.94-.72,1.87.07.29-.36.07-.22.36.07.29.43.43.79.5-.07.36-.36.36-.58.5-.07.22.43-.07.36.14v.22c0,.29-.5.22-.58.43.07.22.29.14.29.43-.07.14-.29.07-.29.22.43.58.79,1.3.07,1.73.36,1.08,0,2.09.22,3.02.07.72.58,1.44.58,1.94-.07.29-.36.36-.43.65-.14.43.14.86-.14,1.3.14.22.29.29.65.29-.07,1.15-.86,1.87-.72,3.38.22.29.5.5.86.43-.14.29-.29.29-.07.58h-.29c.43.14-.14.94-.5,1.08,0,1.08-.07,3.1,0,4.1.07.22.36-.07.58.07v.94c-.22.14-.22.07-.43.14.07.58-.58,2.45.07,2.95,0,.22-.14.43-.43.43-.14,2.02-.14,3.89.22,5.54-.14.94-.14,1.94.29,2.66.07.14-.14.14-.14.22.29,2.23.36,4.39,1.37,6.12h.43c.65,1.87,2.88,2.23,4.32,3.38,2.02.43,4.61.86,6.34.22,2.88.14,5.18-1.08,7.42-1.94,3.17-2.3,6.05-5.69,6.55-10.37.07-1.37.36-2.88.29-4.18-.07-1.08.43-2.38.36-3.67-.14-1.58,0-3.31,0-4.82-.07-1.3-.07-2.74-.36-3.67.07-.43,0-.79.14-1.3-.36-1.94-.29-4.25-.43-6.48-.22-2.88-1.37-5.11-2.09-7.56v-.5c-.36-.5-.58-1.15-.86-1.66-.07-.22.14-.14.14-.22-.22-.36-.5-.43-.86-.43-.14-.36-.36-.5-.22-.86-.36-.79-1.37-.94-1.8-1.58-.22-.07-.29,0-.36.14-.58-.65-1.37-.58-2.23-.65-.86-.14-1.73-.72-2.81-.43.14-.5,0-.86.07-1.22.5.14.72-.14,1.08-.29,1.01-.14,2.09.5,2.88.43.22-.07.36-.22.65-.29.72-.07,1.66.07,2.45,0,.5,0,1.08.22,1.44.22.22-.07.43-.29.65-.36.79-.14,1.8.14,2.66,0,1.3-.22,2.81.79,3.89,0,1.08.43,2.02-.29,3.02,0,.5.36-.07-.07.07-.22.94.43,1.94,0,2.74.14.36.36.65.86.36,1.44-2.59.79-4.97.36-6.91,1.3ZM10.63,17.71c-.43-.22-1.08,0-1.37.14.29.43.07,1.37.86,1.3.22-.14.29-.43.58-.58-.22-.22-.22-.5-.07-.86ZM19.78,17.64c0,.22-.07.43-.22.5-1.51.58-2.52,1.66-3.82,2.38-.07.14.07.22,0,.22-.14-.14-.29,0-.5,0v.43c-.94-.07-1.3.86-2.02.79-.07.29-.79.79-1.01.43.79-.58,1.73-.94,2.23-1.8.22.14.14.14.5.07,0-.29.14-.5.43-.29.07-.14-.07-.43.07-.43.43.29,1.01-.29,1.37-.58-.14-.14-.5,0-.79-.07.07.36-.36.29-.58.43.22-.36.58-.36.5-.72.43-.14.58,0,.94-.07.07-.36.07-.29,0-.65.29.07.14-.22.43-.14.07,0,.14.07.22.14.36-.36.86-.58,1.3-.86-2.38.65-4.32,2.45-6.48,3.6-.07-.14-.07-.22-.07-.43.36,0,.36-.36.72-.14.36-.65.86-1.22,1.94-1.22.07-.29.29-.5.58-.58.22-.14,0-.14,0-.36.22-.29.72-.14.65-.65-1.87.36-3.02,1.94-4.75,2.66-.07.14-.07.29-.22.36,0-.14-.36,0-.29-.22.29-.36.72-.58.94-.86-.43-.36-2.3.72-1.44,1.22.14,0,.07-.22.22-.22.07,0,.29,0,.29.07,0,.36-.43.14-.36.5-.07.14.22.07.22.22-.29.07-.36.29-.5.5.79,0,1.08-1.15,1.87-.65-.22.22-.58.36-1.01.43.22.29,0,.29-.22.36-.14.29.29.36.07.43-.22,0-.14-.14-.36-.07.22.5-.22.58-.36,1.01.22-.07.58,0,.72,0,0,.43-.65.29-.58.86.36.43-.65,1.3.14,1.8-.29.07,0,.43-.43.43.22.5,0,.86.14,1.3.5-.22,1.01-.43,1.44-.72-.07.43.43.36.43.72-.29.07-.43.14-.72.14-.07.29.29.22.07.43-.58-.14-.43.29-.86.22.14.36-.22.58-.36,1.08.65.07.43-.72,1.08-.43.07-.14.07-.36.22-.5.22.29.43.65.58,1.08-2.59.58-1.37,3.38-1.87,5.33.36.58,0,1.44.36,2.09,1.22-.43,1.8-1.58,3.24-1.94,0-.65.86-.5.94-1.08.72-.14.5-.72,1.08-.86.07.07.14.22.29.22.14-.29-.14-.29-.22-.43.36.07.72-.22.79.22-.43-.07-.22.5-.58.5-.58-.14-.86.58-1.08,1.08.22-.14.29,0,.58,0,1.08-1.22,2.74-2.02,4.39-2.74-.07-.43-.36-.5-.22-1.01-.22-.29-.43.07-.79-.07-.22.5-.79.72-1.37.94-.07.14.07.07,0,.29-.14.07-.29.14-.5.07,0,.22,0,.5-.22.5,0-.22-.5.07-.5-.14.79-.22,1.01-1.44,1.87-1.3.07-.29.22-.5.29-.79.5-.07.86-.36,1.01-.79-.29-.22-.65.5-1.01.22-.14.07,0,.43-.22.43-.22.07-.29-.14-.5-.07-.07.29-.22.58-.72.43-.14.36-.22.72-.5.94-.58-.07-.86,0-1.01-.5.14-.07.29-.14.43-.14.07.07.14.14.07.29.29,0,.58-.07.5-.5-.22,0-.5.07-.5-.22.43-.07.65-.29,1.08-.36.14,0,.14.22.29.29,0-.29.29-.22.29-.5-.07-.22-.29-.29-.43-.43.07-.07.22-.14.43-.07,0,.22-.14.14-.14.36.29.07.5.07.86,0-.07-1.01,1.37-.14,1.3-1.22-.14-.07-.65.07-.72-.22.14-.29.43-.36.5-.65-.22-.07-.5.22-.72-.14-.36.07-.36.5-.72.58-.07-.07-.14-.14-.22-.29.22.07.36.07.36-.14-.07-.14-.22-.22-.22-.43.58.14.14-.72.65-.58.07.07.07.29.14.36.43.07.58-.14.65-.43-.36-.14-.65.22-.65-.22.65-.14.5-.72.5-1.22-.22-.14-.5-.14-.79-.22,0,.22-.07.36-.22.36-.07-.22-.36-.22-.43-.5.58-.07.79-.5,1.44-.65-.29-.5.43-.36.29-1.01-.36.07-.5.36-.72.65-.5-.07-.58.29-.86.43-.36.14-1.08.65-.72,1.01.07-.43.86-.07.86.22-.14.07-.22,0-.58.07-.14.14.07.14,0,.43-.14-.22-.43,0-.5.14-.22,0-.14-.22-.29-.22-.5.58-1.3.86-2.09,1.44-.07-.14-.29-.22-.36-.36.22-.22.07-.58.14-.72.14,0,.22.14.36.07.22-.07-.14-.29.07-.36.29,0,.5.07.5.36.36,0,.36-.36.58-.43,0,.14.29,0,.43.07.07-.29.5-.58.29-.79-.43.29-.79.72-1.37.86-.29-.29.29-.65,0-.79-.22.14-.29.43-.72.36v-.43c.36-.22.86-.36,1.01-.5.07-.29-.29-.07-.29-.22.36-.29.72,0,1.01.07.14-.22-.22-.36-.36-.5.43-.14.58-.43.79-.79.29.14.58.07.79-.07.07-.22-.22-.14-.14-.43.86-.29,1.66-.79,2.3-1.3.07-.58-.07-.72-.07-.94-.43,0-.14.79-.79.58,0-.07-.07-.07-.07-.14.22-.65,1.3-.72,1.15-1.44-.07.07-.5.29-.58.07,0-.29.29-.29.58-.29-.07-.29.14-.29.07-.5-.72.29-1.44.72-1.94,1.3,0,.14.36,0,.36.22-.36.07-.14.14-.14.43-.65,0-1.08.79-1.8.5.58-.43,1.15-.43,1.51-1.08-.65.14-.94.5-1.51.14.07-.14.14-.22.22-.29.22-.07.22.14.43.07v-.36c.65-.14.94-.65,1.44-.94.72-.36,1.37-.65,2.09-1.15.36-.22,1.01-.22,1.08-.79-.94-.36-1.37.72-2.09.58ZM20.06,41.04c-1.08-.22-1.15,1.08-1.87,1.44.07-.36.07-.5-.22-.58.07-.29.43-.22.72-.29,0-1.01,1.58-.72,1.08-2.02-.65-.07-.94.22-1.08.65-.36-.07-.72,0-1.01,0-.07.29.22.22.29.36-.14.14-.29-.07-.58,0-.22.22-.36.58-.72.65.07-.36-.22-.22-.07-.5.22,0,.14.14.36.07.36-.65.94-.86,1.66-1.01-.14-.22-.22.07-.29-.07.22-.22.72-.43,1.22-.5-.22-.14.22-.29.43-.22-.29-.5-.07-.79-.22-1.44-.36.07-.36.58-1.01.43-.14.36-.36.65-.5,1.01h-.29c-1.01,1.08-2.38,1.66-3.38,2.74-.22.14-.22-.29-.29-.07.14.22-.29.36-.22.5-.86.29-1.44.94-2.16,1.44.29.07.43.22.5.36-.14.07-.14-.07-.29-.07-.07.29.22.22.14.43-.58.14-.58.86-1.22.86-.58.72-.5,1.58-.43,2.66.07.07.29.07.5.07.22-.22-.22-.22,0-.43.36.07.43-.14.72-.14,0,.43.65.43,1.01.14-.14.86-1.01.5-1.44,1.08-.14.29.22,0,.22.22-.29.22-.58.43-.94.58q-.07.5-.07.86c.94.29.94-1.01,1.87-.94.29-.86,1.3-1.01,1.8-1.73.22.14.65.14.72-.14,0,.29.29.22.43.14,0-.22-.36-.22-.43-.43.14-.14.14-.36.29-.5.29.14.29.5.22.86.5,0,.65-.22,1.15-.22,0,.14.07.14.07.22-.22.29-.43.58-.72.79-.22-.14-.36.07-.65,0,0,.36-.14.36-.65.36.07.43-.22.5-.5.58.14,0,.14.14.14.29-.43.29-.72-.07-.65.43-.22-.29-.36,0-.65.07.07.58-.5.58-.65.94-.07-.07,0-.29-.22-.22-.07.22.07.58-.14.65-.14,0-.14-.14-.29-.07-.29.94-2.09,1.3-1.22,2.59.72-.72,1.66-1.22,2.38-2.02h.36c.86-1.22,2.3-1.87,3.31-2.95.22-.07.65,0,.79-.14.14-.29-.29-.07-.22-.22.07-.65.94-.58,1.22-.72,0-.43-.43.29-.5-.14.43-.29.72-.29,1.15-.5-.14-.58.58-.29.65-.43-.07-.07-.36-.07-.29-.29.36-.07.36-.5.58-.72-.29,0-.36.22-.58.29-.07-.22-.14-.43-.29-.72.29-.14.5-.72.86-.5-.14-.36-.07-.36-.14-.72-.36-.07-.72-.14-.86-.43.22-.07.36.36.36,0,.07-.07-.22-.5-.36-.58-.07.29-.43.29-.58.58-.14-.14-.29-.29-.36-.58.36,0,.5-.07.79.07.22-.14-.14-.14-.07-.36.22.07.14-.22.36-.14.29.07-.14.43.22.36.29-.22.29-.72.72-.86-.22-.36-.22-.79,0-1.15ZM12.65,18.36c.5.07.58-.29.86-.5-1.08-.72-1.66.79-2.59.94,0,.36-.86.58-.5.86.58-.36,1.44-.72,2.02-.72-.07.22-.43.14-.36.43.72-.07,1.15-.5,1.66-.86-.29-.29-.94.5-1.08-.14ZM19.56,49.04c-.36,0-.58.29-.86.14-.14.14-.36.5-.58.22-.07.22.22.14.14.5-.65.07-.79.79-1.66.79-.36.36-.5.94-1.37.79-.07.79-.72,1.01-1.44,1.15.14.58-.29.29-.43.43.14,0,.14.14.14.22-1.15.5-1.51,2.16-2.95,1.94-.36.79.43,1.37.36,2.23.29.07.36-.07.65-.07,0-.22-.14-.14-.07-.43.07.07.29.36.36.14-.14-.07-.14-.29-.29-.43.22.07.36-.36.5-.07v.14c-.14,0-.5-.14-.29,0,.14.14.22,0,.43,0,.07-.14-.22-.29,0-.29.22.14.43.43.65.07-.43.14-.29-.29-.58-.36-.29-.07,0,.36-.36.29.22-.72,1.22-.86,1.87-.79.07-.43-.79.07-.65-.43.14.14.36,0,.58-.07.07-.29-.14-.22-.14-.36.5.22.29-.5.65-.5.22-.07.29.07.43.07,0-.43.36-.22.58-.36,0-.29-.36-.14-.43-.36.14-.14.22.07.5,0,.29-.65.79-1.37,1.58-1.15.07.22-.36,0-.22.29q.07,0,.07.14c.29-.14.5-.22.72,0,0-.14.22-.07.22-.14.14-.36-.14-.36-.14-.58.65,0,1.51-.79,1.87-.29.07-.43.5-1.15,0-1.51-.14.36-.43,0-.65,0-.07.14.14.22,0,.29-.14.07-.22,0-.36-.07.22-.22.36-.5.72-.5-.14-.29.14-.29.43-.36-.07-.29.22-.22.14-.5-.07-.07-.14-.14-.14-.22ZM10.77,27.65c.07.22-.14.22-.07.36.22-.07.58-.07.72-.29-.36.22-.36-.07-.65-.07ZM16.46,35c.07.36-.29.36-.58.29-.43.79-1.22.72-2.02,1.08-.36.29-.58,1.15-1.22,1.01-.43,1.15-2.52,1.51-1.66,3.31,2.16-1.58,4.39-2.95,6.12-4.97,1.01-.79,2.3-1.22,2.88-2.59-1.66.14-2.02,1.58-3.53,1.87ZM18.55,37.08c-.36-.43-.58.29-.94.29.07.22.14.36-.07.5-.22.14-.43-.22-.58,0-.5.72-1.58,1.08-2.52,1.58.07.14.36,0,.29.29-.5.72-1.37.29-1.73,1.3-.86.5-1.44.86-2.16,1.44,0,.36,0,.72.07.94.43-.07.5-.5,1.01-.29.14-.65,1.22-.94,1.8-1.37.07-.43.94-1.01,1.44-1.01,1.22-1.66,3.24-2.59,4.61-4.18-.65-.22-.94.14-1.22.5ZM11.06,23.33c.29-.36.58-.65,1.08-.79-.14.43-.72,1.01-1.08.79ZM12.36,34.92c-.43-.07-.5.22-.79.29-.22,0-.22-.07-.43-.14,0-.72.79-.14.72-.86.58.07.36-.79,1.15-.72-.07.36.43.22.36.58-.5.07-.79.43-1.01.86ZM11.21,44.14c0,.22,0,.5.29.43-.07-.36.29-.22.22-.65-.29-.07-.22.22-.5.22ZM20.42,61.21c-.22.36-.29,1.08-.86.79.14.36-.07.5-.22.72-.43-.14-.65,0-1.01.14.07-.22.07-.5.29-.5.07.07.22.07.36.07.07-.29.43-.29.58-.43,0-.36.14-.5-.07-.72.36-.14.65-.36.65-.94-.36.22-.86.14-1.22.36-.14.22.29,0,.22.22-1.08.43-2.3,2.88-3.46,1.51.29-.22.22-.72.86-.58,0-.36.07-.58.22-.79.29,0,.29.14.58.07.07-.07.07-.29.14-.36-.14-.07-.29.22-.29,0,.43-.65.79-1.37,1.66-1.66,0-.14,0-.36.22-.29v-.43c.43-.07.72-.43.94-.79-.29.07-.36-.07-.5-.14-.29.14-.36.72-.72.36-.14.14,0,.58-.22.72-.22,0-.14-.22-.36-.22,0,.14,0,.22-.14.22.07.29,0,.29.07.5-.07,0-.14-.07-.29-.07v.43c-.43-.07-.22.43-.58.36,0-.22,0-.43-.14-.43.07.22-.29.07-.36.22.43.94-1.94.14-1.22-.43.36.36,1.51-.22,2.09.14.07-.36-.36-.14-.43-.36,0-.36.29-.5.29-.86-.22.22-.5.22-.86.07.43-.43.79-.94,1.44-.94,0,.07.07.07.07.22-.14.14-.43.22-.43.5.43-.14.43.36.65.14v-.5c.72-.07.79-1.01,1.73-.72,0-.14.07-.36.07-.65-.22.07-.29-.07-.29-.22.07-.22.14-.14.36-.22-.29-.22-.72-.36-.94-.07-.36-.14-.29-.5-.29-.43-.14.14-.43.07-.72.07-.22.14-.07.29-.14.5-1.37.29-1.94,2.23-3.53,2.02,0-.29.43-.14.43-.36-.22.07,0-.36-.29-.22-.07.29-.72.36-.72-.07.07-.14.14-.29.29-.36.5,0,.65.43,1.22.36.14-.29.36-.36.43-.65-.29.07-.14-.29-.5-.14.07.14.07.36-.14.36s-.43,0-.5-.14c.36-.58.72-.79,1.37-.86-.07-.65.58-.5.79-.79.07.14.22.22.29.36-.22,0-.07.22-.29.22.14-.22.07-.36-.14-.43.14.29-.22.58-.29.86-.14-.29-.29.22-.58.14v.43c.43.07.43-.29.65-.5.72.14.86-.86,1.66-.86.07-.14.07-.43.14-.5.36.43.5-.22.72,0,.07.22-.36,0-.22.29.29,0,.36-.22.5-.36-.36,0,.07-.29.22-.29-.07-.5,0-.94,0-1.37-.22.07-.07-.29-.29-.14.36.36-.22.58-.36.94,0-.29-.07-.22,0-.5-.07-.14-.43.14-.43-.14.29-.07.58-.14.58-.5-.07,0-.07-.14-.14-.22-.36.29-.72-.58-.94.07.22.14.65,0,.65.36-.5-.07-.79.65-1.51.36,0,.36-.07.29,0,.65-.58-.07-.5.5-1.01.22,0,.14.07.29-.07.36-.43,0-.58.29-.72.72-.36.43-1.22.29-1.51.79.07,0,.22,0,.22.07-.29,0,.07.22-.14.29-.36.14-.07-.36-.43-.22-.29.22.22.22.22.43-.43.22-1.22.58-1.08.94-.14.14-.36-.07-.43.07.07.36-.5.58-1.01.65.22,1.66,1.08,2.59,1.8,3.6.22-.5.65-.86,1.01-.72.07-.22-.07-.22-.07-.43.43.29.14-.29.43-.29.22.22.43-.14.72-.14.07-.29-.36,0-.29-.36.29.14.36.07.58-.07.14.36.58.43.86.58-.14.5-.94.29-1.15.5.14.14.36-.14.36.14,0,.5-.86.29-.79.94-.43.07-.94.86-1.15.14-.07.36.07.5.07.72,1.22.58,2.09,3.17,3.53,1.8,0,.07.07.14.14.14,0-.43.36-.43.58-.58,0-.22,0-.36.07-.43.36-.07.36-.43.72-.07.07-.43-.5-.22-.5-.58.29-.07.5-.14.65,0-.43,0,.29.07.14.36-.43.29-.72,1.08-1.3,1.01.29.29-.07.29.07.58.79.07,1.87-2.02,2.59-.79.36-.07.5.07.58.36.86-.29.07-1.44.14-1.94-.5-.22-.43-.72-.58-1.37ZM11.71,32.76v-.65c.22.07.43.07.58.14-.14.29-.22.5-.58.5ZM12.86,47.45c-.29,0-.36-.14-.5-.22-.07,0-.07.22,0,.22-.07.07-.43-.22-.65-.29.07-.43.43-.5.79-.58.29-.29.29-.86.79-.86,0,.29.29.22.5.29-.07.22-.14.43-.29.5-.22.07-.14-.14-.29-.14-.07,0-.14.07-.14.14.22.29.86.14.94.5-.65-.14-.72.29-1.15.43ZM12.29,29.38c-.14-.22-.07-.65-.43-.72.29-.14.5-.29.58-.58.79.07.79-.72,1.44-.79-.07-.07-.07-.14-.07-.29.14.14.58,0,.58.29h-.43c.29.14,0,.29.14.5.29.07.14-.29.36-.22.14,0,.36,0,.29.22-.72.29-1.66,1.08-2.45,1.58ZM12.14,53.86c-.07.14-.22.14-.29.36q.14,0,.22.07c0-.22.22-.22.22-.36-.07,0-.07-.07-.14-.07ZM12.86,31.47c-.29.22.29.22.22.5-.36-.07-.58.5-.72,0,.14-.14.36-.07.29-.36-.14,0-.22.07-.22.29-.07-.14-.36-.07-.29-.36.14,0,.36-.07.36-.29.5.07.58.22,1.01.22,0,.43-.58.22-.65,0ZM12.22,36.58c-.14.22.07.43.36.43,0-.22-.14-.36-.36-.43ZM14.38,58.4c0,.14.22.07.14.36-.29,0-.58,0-.5.36-.29.07-.29-.22-.65-.07.29.29,0,.22,0,.65-.14,0-.72-.29-.58.14-.29,0-.14-.5-.5-.43,0-.43.07-.86.5-.86-.07-.58.86-.72,1.15-1.15-.07.22-.22.43-.43.58.43,0,1.01-.14,1.44.14-.07.29-.36.43-.58.29ZM13.01,27.22c-.22,0-.14-.36-.58-.22,0-.58.65-.43.79-.86.36.07-.22.43-.29.65.22,0,.22-.29.58-.22-.14.29-.36.43-.5.65ZM12.43,43.71c.07-.14.14-.29.43-.22-.07.14-.22.43-.43.22ZM12.5,36.44c.14,0,.14.22.43.14.07-.22-.36-.29-.43-.14ZM12.93,52.64c-.07.29-.36.29-.43.5.07.07.43.29.58.07-.14,0-.14-.22-.22-.29.14,0,.22,0,.29.07,0-.22-.14-.29-.22-.36ZM12.86,56.24c.22.14.36-.43.07-.36-.07.07-.14.22-.07.36ZM14.74,42.34c.07.14.14,0,.29,0-.07.65-1.15.07-1.15.86-.29,0-.5.07-.5.36-.22-.07-.43-.14-.5-.36,1.01-.22,1.51-1.01,2.52-1.3-.14.22-.5.22-.65.43ZM14.81,32.98c-.29,0-.43-.14-.58.07,0,.14.14.07.22.07-.29.36-.86.36-1.22.58,0-.43.29-.5.36-.86h.29c0,.14.07.22.07.29.22-.07.22-.58.5-.29.14-.36-.29-.14-.22-.43.22,0,.5.07.5-.14.22.14.36.22.43.43-.29-.14-.22.22-.36.29ZM13.37,27.72c.14.29-.29.36,0,.5.22-.14.43-.22.43-.5-.14-.14-.14.07-.43,0ZM13.3,49.18c.14.07.43.07.43-.22-.22,0-.36.07-.43.22ZM13.37,52.35c.14.22.5.14.5-.14-.14.14-.36.14-.5.14ZM16.18,45.29h-.43c-.22.58-.58.86-1.08,1.15-.07-.29-.43-.29-.43-.65-.29.14-.79.14-.72-.36.43-.07.79-.29,1.22-.36.07-.14-.07-.14-.07-.36.43-.36.94-.65,1.22-1.15.72.22,1.51-.22,2.23.07-.72.5-1.8.79-1.94,1.66ZM13.66,30.96c-.07,0-.07-.07-.14-.07,0-.14.22-.14.22-.29.07,0,.07.07.14.07,0,.14-.22.14-.22.29ZM13.87,18.29c.36.29.79-.29.36-.43-.07.22-.36.22-.36.43ZM14.09,30.6s-.07-.07-.14-.07v-.29c.36.43.29-.22.58-.29,0,.22-.14.22.07.29-.07.36-.43.07-.5.36ZM14.01,26.21c-.07-.14-.07-.29,0-.43.22,0,.36.14.36.36-.14,0-.22.07-.36.07ZM15.1,54.51c-.5.07-1.08.36-.79.86.43-.07.22-.65.86-.36,0-.22,0-.43-.07-.5ZM15.82,29.88c-.29,0-.22-.22-.43-.22-.22.14-.58.29-.58.79-.14-.07-.14-.36-.22-.5.29-.43.79-.5,1.37-.5.07.29-.07.36-.14.43ZM14.59,35.07c0,.14.07.22.07.22.22.07.29-.07.29-.29-.14,0-.29,0-.36.07ZM15.1,26.5c.29.22-.58.36-.14.65.07-.22.14-.36.36-.5-.07.07-.07-.43-.22-.14ZM15.02,32.33c-.07-.14.22-.29,0-.36.22,0,.29-.22.72-.14.07.14.22.22.14.5-.29-.14-.58.22-.86,0ZM15.02,22.9c-.07-.22.22-.22.22-.36.29.07.14.5-.22.36ZM15.17,38.52c.29,0,.58-.43.22-.58-.07.14-.43.36-.22.58ZM16.1,50.19c0,.14-.14-.14-.29-.07-.07.36-.36.58-.58.86.22,0,.14.29.43.22.14-.22.22-.72.58-.79.07-.14-.07-.14-.14-.22ZM15.46,56.02c-.07.36.5.36.43,0-.14-.14-.22,0-.43,0ZM15.53,53.64c0,.14.14.14.14.29.22.07.36-.07.36-.29-.07-.14-.36-.14-.5,0ZM15.67,29.09c.14-.22.43,0,.36.29-.07-.14-.43-.07-.36-.29ZM17.54,45.72c-.14,0-.07-.22-.29-.14-.36.65-1.01,1.08-1.58,1.51,0-.94.72-1.15,1.15-1.73.65-.29,1.01-.58,1.94-.5-.14.5-1.37,0-1.22.86ZM15.67,58.83c.14-.36.43-.5.86-.58v.36c-.36,0-.65.36-.86.22ZM16.25,21.46q-.22-.14-.5-.07c0-.14.22-.07.14-.29.22.29.36-.29.65,0-.07.14-.29.14-.29.36ZM15.82,44.64c.43.14.5-.36.07-.29,0,.07-.14.14-.07.29ZM15.89,25.42c.29,0,.43-.14.5-.43-.22.07-.5.14-.5.43ZM16.03,22.03c-.07-.22.36.07.36-.14,0,0,.07.07.14.07v.14c-.29.07-.22-.14-.5-.07ZM19.27,47.52c-.5,0-.94.36-.58.72-.5-.07-.5.36-1.01.29.22.29.14.5-.14.72-.5-.29-.72.5-1.3.22,0,.14-.07.22-.14.29.5,0,1.01,0,1.37-.14-.14,0-.14-.14-.14-.29.43.29.29-.22.86,0,.22-.43.5-.86,1.08-.65.07-.29-.29-.14-.29-.36.22-.14.72,0,.72-.43-.29-.14-.65.07-.43-.36ZM16.25,40.9c.43.07-.22.36.14.5-.36.29-.29-.43-.14-.5ZM17.11,36.87h-.29c.07.29-.29.22-.43.14.07.36-.29.22-.22.58.36.14.86-.14,1.15-.14-.29,0-.29-.29-.22-.58ZM16.18,44.14c.14.07.22.07.43.07,0-.14,0-.22.07-.29-.14-.14-.43,0-.5.22ZM16.18,53c.07.14.14.29.22.5.22-.07.29-.29.36-.5-.07-.14-.43-.14-.58,0ZM16.9,28.51c-.29.07-.5.29-.65.65-.22-.5.36-.94,1.01-.86,0,.22.07.14.14.43-.36.14-.29-.14-.5-.22ZM17.98,43.06c-.22-.07-.65-.14-.58.29-.14,0-.14-.14-.14-.29-.14.22-.29.29-.65.43,0-.14.36-.29.07-.58.43-.14.65-.5,1.22-.5,0-.14-.29,0-.36-.14.22-.22.43.14.5.22-.07.36-.14.22-.07.58ZM17.62,46.52c.07.22.14.36.22.58-.36.07-.65-.29-.72.29-.29-.07-.5-.14-.5-.5.58-.07.86-.58,1.22-.94.29.07.43.36.86.36-.29.22-.79.36-1.08.22ZM16.68,24.7c.14,0,.07.22.29.14,0-.43.65-.14.58-.65-.5-.07-.65.29-.86.5ZM16.82,52.13c.22,0,.29-.14.5-.07v.29c-.22-.14-.43.14-.5-.22ZM16.9,50.19c.29.07.29,0,.58,0,.07-.43-.5-.22-.58,0ZM17.4,64.95c0,.14-.22.14-.29.14-.07.22.14.14.29.22,0-.07.22-.29,0-.36ZM17.11,30.1c.07-.07.07-.22.29-.22v.29c-.14,0-.14-.07-.29-.07ZM18.41,35.21c.22.79-.58.65-.94.94.14.07.29-.29.36,0-.07.29-.5.14-.65.29-.07.29.07.5.29.5.79-.58,1.44-1.22,2.38-1.51.07-.36.07-.5.22-.94-.58.22-.94.94-1.66.72ZM17.54,28.23c-.14-.22-.29-.36-.36-.58.14-.07.5.07.5-.07.22.14-.14.22,0,.5-.07,0-.14.07-.14.14ZM17.83,51.63c-.29-.14-.43,0-.65.07.07-.43.5-.43.72-.72.22.07.36.22.5.36-.22.07-.5-.07-.58.29ZM17.69,57.39c-.14.07-.36.07-.36.29h.36v-.29ZM18.62,54c-.43,0-.5.65-1.01.36,0,.14.07.22.22.22-.14.14-.29.22-.36.36-.22-.43.14-1.08.86-1.01,0-.07-.14-.07-.29-.07,0-.43.43-.36.65-.22,0,.14-.14.14-.07.36ZM18.34,21.96c-.29-.07-.22-.14-.43-.14.22-.07.43-.36.65-.14,0,.22-.22.14-.22.29ZM17.98,56.74c.07-.29.22-.5.65-.5,0,.43-.22.58-.65.5ZM18.19,23.62c.22,0,.29-.07.58-.07,0-.36-.58-.07-.58.07ZM18.26,60.85c.14.29.65.07.58-.29-.29,0-.58,0-.58.29ZM18.26,65.45c.29.29-.07.43.14.72.22-.14.65-.36.36-.5.29,0,.29.22.58.22,0-.5-.94-.36-1.08-.43ZM18.62,21.1c.07,0,.07.14,0,.14,0,.14.43-.07.29.29-.36,0-.58-.29-.29-.43ZM18.55,29.16c-.07-.36.14-.43.43-.43,0,.14,0,.29.07.29-.07.07-.36.07-.5.14ZM18.84,44.72c-.22,0-.07-.43.14-.36-.07-.22-.29,0-.43,0,0-.22.07-.22.07-.5.36.07.5.29.65.5-.29,0-.22.36-.43.36ZM18.77,20.59c-.58-.43.43-.79.72-.36-.07.22-.5.22-.72.36ZM18.7,45.44c.36-.07.58.94.14.94q0-.14.07-.22c-.43-.14-.07-.14-.22-.72ZM18.7,55.88c0-.14.22-.07.22-.22.29,0,.22.29.5.36-.22.29-.5-.14-.72-.14ZM18.77,64.59c.07.14,0,.43.22.36.14-.07,0-.36-.22-.36ZM19.49,58.76c.22,0,.36,0,.36.14-.07.29-.29.22-.58.14.07.5-.07.43-.29.65.58.14,1.15-.43,1.15-1.08-.14.07-.79,0-.65.14ZM19.42,48.82c.07.07.22.14.36.07.07-.29-.36-.29-.36-.07ZM19.49,36c-.07.36.36.36.36.14-.14-.07-.22-.29-.36-.14ZM21.22,67.11c-.14-.36-.72-.36-1.01-.72.07-.14.14-.43-.14-.43-.07.07-.29.07-.43.14-.29,1.15,1.37.94,2.09,1.37.07-.14.22-.14.22-.36-.14-.22-.5-.14-.72,0ZM19.99,47.38h-.29c0,.22,0,.43.29.36v-.36ZM22.66,67.04c-.22-.22-.65-.07-.5.43.14.07.29.14.5.14v-.58ZM24.67,67.25c0,.29-.5.43-.29.72.22-.07.36-.22.43-.36-.22-.07.22-.36-.14-.36ZM26.69,68.84c.36.14.58.14.94.07,0-.43-.86-.5-.94-.07ZM40.66,2.38c-.58.07-.43.43-.72.79-.5.07-.65.43-1.15.58-.22.14-.29.43-.43.65-.65.29-1.22.86-1.73,1.37-.07.07-.07.22-.07.29-.43.29-.86.43-1.22.79-.58.5-1.22,1.08-1.73,1.58-.14.07-.07.29-.14.36-.07.14-.36.07-.43.14-.14.14-.14.36-.29.43-.07.07-.29,0-.36.07-.86.65-1.66,1.37-3.31,1.3.14-.79.5-1.15.65-2.09,0-.14,0-.36.14-.5.29-1.22,1.58-2.88,2.23-4.18.29-.65.5-1.51.86-1.94.36-.65,1.3-.94,1.44-1.8,1.94.58,3.82-.22,5.62-.22.36.14.36.58.65.72-.22.36,0,.65.14.86-.14.29-.29.43-.14.79ZM31.37,8.42c.94-.5,1.87-1.51,2.3-2.3-.94.58-1.73,1.3-2.3,2.3ZM34.54,5.69c1.01-.07,1.58-.5,2.02-1.15-.86.22-1.44.65-2.02,1.15ZM38.35,1.08c.07.43-.36.29-.29.72.5.14,1.15.07,1.15.65.14-.29.5-.36.43-.86-.36-.36-.5-.65-1.3-.5ZM42.96,17.35c.29.58,1.22.5,1.44.07-.5-.22-1.01-.29-1.44-.07ZM48.94,17.43c0,.14-.07.29-.22.36-.07-.14-.43-.22-.22-.36-.58.22-1.15.36-1.51.79-.07-.14.07-.43-.07-.43-.14.29-.36-.14-.5-.14,0,.22.29.14.14.5-.14,0-.14-.14-.29-.07,0,.29,0,.5-.14.72-.07-.22-.22-.36-.36-.5.22-.14.5-.22.43-.65-.14-.14-.43-.07-.65-.07.14.43-.65.36-.58,1.08.29,0,.36.22.36.5.58-.14,0,.43.5.36.07-.22-.14-.22-.07-.43.14,0,.22-.07.36-.07-.07.22.14.14.14.29-.22,0-.14.36-.5.29.14.29.22.29.07.65.14.22.36-.22.43,0,0,.14-.29.14-.22.36.29.22.94.36.94-.14-.22,0-.36-.07-.29-.22.07-.07.07-.14.22-.14.22.07.14.36.36.36.07-.43-.29-.36-.29-.72.14-.14.07-.43.22-.58.07.07.29,0,.29.22,0,.29-.43.07-.36.36.29,0,.14.43.43.58.36-.29-.22-1.01.14-1.3,0,.43.36-.14.72.14,0-.22.14-.14.07-.36-.22-.14-.43.22-.5,0,.36-.07.22-1.01.5-.72-.07,0-.07.07-.07.22h.29c-.22-.65.72-.22.86-.79-.36.07-.36-.14-.65-.07ZM45.41,15.91c-.14.36.43.29.36.07-.14,0-.14-.14-.36-.07ZM46.42,18.79c.29-.07.29.22.29.43-.29.07-.14-.36-.29-.43ZM46.42,22.68c.22,0,.14.29.43.22-.22-.5.29-.79.07-1.08-.22.22-.43.43-.5.86Z"/>
      <path class="cls-1" d="M95.52,68.41c-.14.07-.14.22-.14.43-.22,0-.36-.14-.5-.22-1.08.5-2.3-.58-3.24.07-.72-.58-1.51.29-1.94-.29-.22,0-.29.14-.29.29-.22,0-.07-.29-.36-.29-.36.22-.94.29-1.3.14-.29.07-.94.58-1.01.07-.29.14-.43,0-.65-.07-.29-.07,0,.36-.29.29-.65-.94-2.02.5-2.52-.29-.79.22-1.08-.22-1.94-.22-.79.58-2.3.86-3.31.5.07-2.45,3.82-.65,3.96-3.02.07-.65-.36-1.08-.22-1.51.07-.22.29,0,.43-.14,0-.07.36-.72.36-.94.14-.72-.5-1.8.14-2.59.43-1.73-.86-3.02-.14-4.03-.14-.29,0-.86-.07-1.3,0-.22-.29-.07-.29-.29-.36.36-.65.29-1.01.65-.29-.14.07-.43-.36-.43,0-.29.43-.29.43-.65.22.07.36.14.65.07.07-.07.29-.14.36-.29,0-.14-.36-.29-.36-.14.72-.5.5-1.44.5-2.52,0-.43.22-1.01.22-1.51.07-1.08-.14-2.52-.65-3.24.14-1.8,1.22-3.17-.29-4.1.36-.65,1.15-1.08.79-2.23-.14-.29-.36,0-.58-.22-.07-.29.29-.14.29-.36-.43-.72.58-2.02-.65-2.16-.22.07-.22.36-.43.43-.22,0-.14-.29-.5-.14.36-.36-.07-.36-.07-.72.65-.07.43-.43.72-.72-.5-.72-1.01-1.94-2.09-1.66-.22,0-.36-.14-.43-.29-.5.22-.79,0-1.44.22-.36.72-1.08.36-1.73.58-.79.22-1.8,1.37-2.52,2.16-.29.29-.79.36-.72.86-.58.22-.72.72-.94,1.22-.07.22.14.22.29.29,0,.58-.43.58-.65,1.08-.14,0-.07-.29-.14-.36-.29.22,0,.43-.14.72-.65,0-.5.79-.86,1.08.14.14.07.58.29.65,0,.14-.29.07-.29.22-.14.36.29.14.36.29-.29.65-.5,1.08-.65,1.73.07.29.36.36.58.5,0,.14-.22.07-.22.22.14.43.22-.14.5-.07.29.36-.29.29,0,.58-.29.14-.5.36-.43.86h-.43c0,.5,0,1.01.14,1.3.58.07.86,0,1.15.22-.29.07,0,.79-.72.65-.14.14.14.43-.29.36-.29.43-.22,1.37-.29,2.09.36.36.5.79.72,1.3-.65.43-.58,1.08-.72,1.87.58.65,0,1.66.14,2.45.22.14.43.22.58.36-.07.36-.22-.14-.58.07-.07.5.5.36.43.72.22,0,.29-.07.58-.07s-.07-.22.14-.36c.14,0,.07.22.22.22.29-.36-.22-.65-.36-.65.14-.5.94-.07,1.01.14-.14.29-.36.36-.29.58-.65.14-.58.58-1.08.43,0,.22.14.29.07.58-.14.14-.29.36-.5.43.07,2.09.72,4.1.72,5.54.58,1.01,2.3.94,3.6,1.3-.14.5-.29,1.15-.36,1.51-1.73.14-3.02-.22-4.68.07-.22,0-.29-.07-.29-.29-.72.43-1.8.29-2.59.29-1.73,0-3.6-.43-5.62-.5-.79.29-1.44.72-2.38.86,0-.65-.72-.29-.86-.72-.29.43-.79.29-1.44.22-.22-1.73,2.59-1.08,3.53-1.8.07-.36-.14-.43-.14-.72.72-.36,1.58-.65,2.02-1.3,0-1.01.07-2.23-.43-2.74.29-2.23-.5-4.68.36-6.84-.29-.36-.14-1.08-.36-1.44-.43,0-.43-.07-.86,0,0-.36-.36-.79-.5-1.22.65-.29,1.08-.79,1.66-1.08,0-.58,0-1.08-.5-1.15-.14-.43.36-.86.43-1.44.14-1.22-.5-2.88-.29-4.18-.29,0-.58-.14-.79-.22.07-.29.14-.36-.14-.43.79-1.22,1.44-2.59,1.22-4.32-.14-.14-.36-.07-.58-.07-.29-.58-.22-1.37.22-1.66-.14-.36-.36-.72-.58-1.08-.72-.14-.79.36-1.44.29-.07-.22-.14-.5-.14-.79.22-.14.58-.14.58-.5-.94-.07-2.3-.65-2.88-.14-.43-.14-.94,0-1.22-.43,0-.65.58-.65,1.01-.94,1.51.22,3.38-.22,5.04.29.22-.07.22-.36.43-.43.22,0,.29.07.29.22,3.1,0,5.83.14,8.35-.72,0,.14.14.07.14.14.29.14.14,1.08.58,1.3.29,0,.29-.29.72-.22-.07.36.22.36.14.72-.22.07-.43.22-.36.58-.43-.14-.43.29-.65.07-.14.43-.94.58-.72,1.3,0,.14.29.22.22.65.58,0,.72-.36,1.22-.36.07-.29-.22-.22-.36-.29.14-.22.36-.29.58-.36,0-.07,0-.22-.07-.22,1.87-.94,2.66-2.45,4.97-3.02,1.87-.43,4.32-.94,6.26-.5.43-.5,1.08.14,1.58,0-.07.22-.29.22-.36.43.22.14.43-.14.5-.29.36.29,1.01.36.94,1.01.58-.14.72.14,1.22.14.22.29,0,.58.36.72.07,0,0-.22.14-.22.36,0,.43.36.79.43-.07.36.14.36-.07.5.22.29.65.29,1.01.36-.29.5.22.29.43.58,0,.22-.14.14-.14.29.14.43.29-.14.5.07.29.36.22.86.22,1.15.22.07.65.43.94.22.58,1.01-.72,1.44-.79,2.3.5.43.14,1.22.65,1.73.36-.29.58-.22,1.01-.43.14.36.14.58.14.94-.22.14-.58.22-.79,0,.07.22.07.5.14.72,0,.36-.5.65-.72.22,0,.14.07.5.22.65-.5.29-.58,1.3-.07,1.58-.07.58-.07,1.08.22,1.37.22,0,.22-.29.58-.22-.58.5-.86,1.22-1.22,1.87.29,0-.07.5.22.65.72-.14,1.15-.07,1.73-.43,0,.14.14.65.14.72-.36.07.07-.22-.14-.22-.14.14-.22.36-.22.65-.58-.22-.79.14-1.22.36,0,.14.22.14.22.36-.43.36-.58,1.01-.79,1.51.29.29,1.3-.14,1.73.14-.43.29-1.15.29-1.37.36-.14.22.22.22.14.58-.22.07-.36.07-.43.22-.07.29.22.22.14.5-.14,0-.14-.07-.22-.07.07.22.07.65.29.72.14-.22.43-.43.72-.29-.36-.29.43-1.01.86-.72-.14-.43.94-.65.5-1.58.22,0,.29-.14.58-.07.22.22-.22.22-.14.5,0,.22.5.07.36.43-.29.07-.36-.07-.72-.07.14.5.36.07.65.36-.29.07-.58.14-.94.22-.14.14,0,.14,0,.43-.36.07-.5.22-.79,0,.07.5-.5.79-1.01,1.15.43.5-.29.79,0,1.44q.29-.07.5,0c.14-.14-.07-.22,0-.43.43-.22,1.15-.5,1.51-.07,0,.22-.07.36-.14.5-.36.14-.36.07-.65-.07-.14.07,0,.43-.07.58-.58.14-.72.86-.86,1.22,0,.22.22.22.22.5-.07.14-.29.07-.29.29.07.36.29,1.01.22,1.37,0,.14.36,0,.36.14.07.5-.22.65.14.86-.29-.07-.22.14-.43.07,0,1.66-.14,2.59.65,3.96.43.22.72.29,1.44.22,0,.14-.22,0-.22.14.5,1.08,2.3.22,3.02.79.5-.14.94-.36,1.37-.58.14.14.07.5.36.43,0,1.22-1.58.86-2.3,1.01ZM68.52,37.95c0-.14.22-.07.14-.29-.65,0-1.3.58-1.87.86.14.07.29.14.29.43-.29.22-.58.58-1.01.29-.07.14.29.29,0,.36-.29-.07-.58-.29-1.01-.22-.14.29.14.29,0,.65-.79,0-1.22.5-1.87,1.01-.79-.22-1.44,1.01-.72,1.3.22-.07-.07-.14.07-.22.86.14,1.73-.43,2.3-1.01-.14.22.07.14.14.29.65-.5,1.44-1.44,2.3-1.22.07-.22-.14-.22-.07-.43.14,0,.07-.22.29-.14.29-.14.14.29.43.22-.14-.65.5-.36.72-.65-.14-.07-.14-.14-.14-.29.22-.22.43-.36.43-.65-.14-.29-.22-.14-.43-.29ZM68.52,42.56c-.5-.22-.72.14-.94.43-.14-.07-.14-.43-.58-.29-.14.29.29.14.22.36-.07.07,0,.29-.22.29-.14-.07-.14-.36-.43-.29-.07.29.29.22.22.5-.36.14-.65.22-.86-.07.07.43-.22.5-.29.72.36.22.86.22,1.22.22-.07,0-.43-.14-.22-.22.29.07.58.14.58.5-.43.14-1.3,0-1.51.36-.29,0,0-.22-.14-.22-.5.43-.86.86-1.73.86,0,.22,0,.5-.22.5,0-.22,0-.43.07-.5-.22,0-.29,0-.43.07,0,.29.14.22.14.5-.65-.07-.72.43-1.22.43-.07.79.14,1.37,0,1.8.36,0,.5-.36.72-.58.58.29.94-.36,1.22-.72,0,.22-.14.22-.14.43.58-.29.72-1.01,1.3-1.3.14.07.22.22.5.14,0-.14.14-.29.07-.58.29,0,.43-.22.79-.22-.07.14-.36.22-.14.43.22.14.29-.22.5-.29.22.14.22.72-.14.72-.36.07-.36-.22-.79-.14.29.5-.58.86-.94.5,0,.07-.07.07-.14.07-.22.22.22.22.14.43-.22.14-.43.22-.5.5.14,0,.43-.07.36.14-.14.14-.29.22-.5.29,0-.14-.07-.14-.07-.29-.29.07-.58.07-.79.36.22.36.58.07.86.29-.36.14-.65.5-1.01.36,0,.43-.65.22-.79.43.14.43-.5.65-.29,1.3.86-.36,2.02-.14,2.67-.86.07-.22-.36-.29-.07-.36.29,0,.07.36.36.29.07-.58.43-.43.72-.36.29-.65.72-1.15,1.51-1.22-.07-.43.5-.5.72-.86,0-.22-.07-.43-.29-.5-.14.07-.36,0-.5.22-.14-.22.14-.43.07-.58.86.36,1.08-.94.29-1.01-.36.29-1.22.36-1.22-.29.43.07.5-.29.79,0,0-.07.22-.07.29-.14,0-.22-.22-.22-.29-.36.29-.14.65-.22.72-.58-.36-.14-.72-.36-1.01-.29.14-.36.94-.07,1.37-.5-.14-.36,0-.5,0-.86ZM66.43,41.62v.36c-.22,0-.29.14-.5.07-.07-.22-.36-.29-.58-.29.07.14.29.29.07.5.22.07.29-.29.43-.07-.07.43-.72.5-.86.14-.36.86-1.73.79-2.45,1.44.07.65-.43.65-.36,1.3.29-.14.43-.14.79-.07,0-.14,0-.22-.07-.29.43-.22,1.01-.22,1.08-.72.14.14.14.43.5.29.14-.58.5-.5.94-.79-.14,0-.14-.14-.14-.29.5.07.58-.29.86-.14-.14-.5.58-.79.86-1.15-.36-.07-.43-.07-.58-.29ZM63.77,55.66c0,.22-.22.36-.36.22-.14.58-.79.72-1.15,1.08,0,.22-.07.65.22.58.07-.22.14-.43.36-.58.5.36.94-.43,1.51-.22-.07-.22-.07-.5-.36-.5.43,0,.72-.14.72-.5-.43,0-.72-.07-.94-.07ZM62.83,54.36c-.14-.07-.29-.07-.43-.14-.29.29.07.36,0,.86.29-.07.5,0,.65-.07-.07-.22-.36-.22-.22-.65ZM68.52,34.85c-.14.58-1.15.65-1.01,1.3-.29-.22-.79-.22-.94.14.22.22.36-.07.65,0,0,.07.22.5.07.5-.22-.36-.58.07-.86.14-.14-.07-.14-.29-.29-.43-.29.07-.58.29-.72.58-.22-.07-.5-.14-.43.22.29,0,.79.07,1.15.14-.43.22-.79.14-1.22.07-.29.22-.5.58-1.01.65.07.14,0,.29-.07.36-.43-.07-.72.22-1.3.22,0,.43-.29.5-.22,1.01.36-.14.72-.22,1.22-.14,0-.43.58-.43.72-.22.07-.29.36-.86.94-.65.29-.43.94-.5,1.37-.86.14-.5.65-.65,1.22-.79-.22-.5.22-.58-.07-.94.36-.07.36.36.58.43.22-.36-.29-.5-.36-.86.07,0,.07-.07.14-.07.29.07.22.5.72.43.07-.43.36-.72.5-1.15-.14-.14-.58-.07-.79-.07ZM68.02,49.54c.22-.14.58-1.22-.14-1.22-.07.29.36.07.29.36-.22.14-.36.07-.58-.07-.07.14-.07.36-.22.5-.14-.36-.58-.07-.72.07,0,.07.07.14.07.22-.43.07-.65.65-1.01.36-.07.22.22.14.22.29-.22.14-.29.22-.58.07,0,.14.07.29.07.36-.36.07-.43.36-.79.36,0,.14.14.22.07.36-.43.07-.86-.14-1.22,0,0-.22.22-.14.14-.36-.43.07-.5.5-.72.86.36,0,.65,0,.72.29-.43.36-1.15.5-1.3,1.15.58.29.86-.29,1.3-.43,0,.22-.29.22-.14.5.36.07.5-.14.36-.43.43-.14.86.14,1.08-.14-.22-.22-.22.14-.5.07,0-.07-.07-.14-.07-.22.29-.22.72-.36,1.08-.14.07-.14.22-.14.36-.22,0-.29-.36-.22-.36-.5.58-.14.94-.29,1.3-.58.07.14.14.29.36.29-.29-.5.29-.72.65-.86-.22-.07-.29-.29-.5-.29-.43.14-.72.58-1.08.29.43.07.22-.22.36-.29.58-.14,1.15,0,1.58.14.07-.14.22-.22.14-.43,0-.14-.29-.07-.22-.36ZM68.3,54.44c-.22.22-1.44,1.01-1.22.07-.58.07-.14.65-.58.79.22,0,.14.29.14.5-.29,0-.5.22-.72.29,0-.07,0-.22-.07-.22-.14.5-.58.94-1.22.72v.72c.14.14.5.07.5.36-.79,0-.86.72-1.87.5-.14.43.36.29.43.5-.43.65-1.66.58-1.3,1.73.14,0,.43.14.43-.07.14-.86,1.8-1.51,2.59-1.37,0-.36.58-.14.43-.58-.22-.07-.22.36-.5.14.22-.07.14-.43.29-.58.14-.14.22.22.65.07.14-.36-.29-.22-.29-.5.29.07.58.14.79.22.07-.14.22-.22.22-.5.72-.29.43-1.3,1.3-1.51.14-.43.43-.94,0-1.3ZM62.69,37.23c.5.07.72-.29,1.22-.29-.22-.58-1.3-.14-1.22.29ZM68.16,58.9c.29-.36.36-.86.29-1.51-.22-.14-.22.07-.36.07,0-.14-.07-.29-.22-.36-.14.07-.22.07-.14.14.22.07.22.36.36.5-1.37.36-2.3,1.22-3.17,2.16,0,.14.43.36.14.5-.14-.22-.65-.07-.86-.22-.14.36-.5.43-.72.07-.22.22.07.5.14.72.43-.07.72-.22,1.08,0-.5.14-.72.65-1.3.65-.22.14,0,.14,0,.43-.29.07-.43.22-.65.29,0,.65-.14,1.08.07,1.51.07-.29.29,0,.58-.07.07-.29.14-.5.36-.65.22.07.29.14.58.07.22-.29.65-.94.94-.65.14-.14-.07-.22.07-.36.22-.07.79,0,1.08-.07-.14-.07-.36-.07-.29-.36.72-.79,2.3-1.01,2.45-2.66-.07-.14-.43,0-.43-.22ZM68.3,64.16c.36-.29.86-.29.72-.94-.29,0-.29-.36-.72-.29-.07.29.43,0,.29.36-.58.07-.79.43-1.01.86.07.14.43-.07.43.22-.14.07-.5-.07-.86,0-.14.22-.14.43-.36.58-.36-.29-.5.07-1.01-.07-.14.29.29.14.14.43-.29-.07-.22-.5-.65-.43,0,.14.14.14.07.36-.58.07-.72.58-1.22.72.07,0,.22,0,.22.07-.14.14-.36-.07-.65,0-.07.29-.29.36-.65.36.14.29-.5.43-.29.79.58-.07.86.14,1.37.22.65-.5,1.44-.86,2.38-1.15.5-.94,2.38-.65,2.66-1.87-.36-.14-.65-.22-.86-.22ZM63.05,55.37c.14,0,.07.29.14.29,0-.14.22-.14.22-.36-.14.07-.36,0-.36.07ZM63.19,64.16c0,.22.43.29.43.07-.07-.07-.22-.14-.43-.07ZM63.26,60.2c.36.07.72-.36.36-.5.07.36-.36.22-.36.5ZM63.48,65.02c.29.36.58-.07.72-.43-.43,0-.43.36-.72.43ZM64.13,64.01q.72-.07.07-.29c-.07.07-.14.14-.07.29ZM64.2,42.2c-.07.29.07.29.29.29,0-.22-.07-.29-.29-.29ZM64.27,59.48c-.07.14.07.14.14.22,0,.07-.22.36,0,.36.14-.07,0-.29.14-.36h.29c-.07-.36-.36,0-.58-.22ZM64.56,55.16h-.29c0,.29.22.29.36.36.07-.22-.07-.22-.07-.36ZM64.34,54.15c.22.07.79.43.72,0-.14.22-.72-.36-.72,0ZM64.92,51.77c.07-.07.36-.07.36.22-.14-.07-.43.07-.36-.22ZM64.92,55.88c.07.14.43.14.43-.07-.14-.22-.36-.22-.43.07ZM65.28,63.15c-.07.14-.43.14-.29.58.14.14.65.07.94.07.14-.14.22-.43.43-.58-.22-.22-1.01.5-1.08-.07ZM65.21,54.94c-.07.29.43.07.65.14-.14.29.07.22.22.43.43-.36-.36-.94-.86-.58ZM65.57,53.57c-.07.22-.07.43.22.36,0-.14,0-.36-.22-.36ZM67.58,61.06c-.14.14-.07.5-.22.65-.14-.14,0-.07,0-.29h-.36c0,.22.14.36.14.65-.29.58-1.51.36-1.51.86.07-.36.14,0,.29.07.5-.14,1.08-.29,1.8-.29,0-.22.07-.36.07-.58.43-.14,1.01-.14.94-.79-.36-.29-.5-.36-1.15-.29ZM65.93,53.72c-.5.5.5.86.72.43-.36-.07-.58-.22-.72-.43ZM65.86,47.88c-.22-.36.79-.5.94-.14-.14.22-.86-.29-.94.14ZM66.79,40.83c-.5.07-.43.43-.86.36v.29c.36,0,.58-.14.86-.22,0-.29.14-.29,0-.43ZM66.65,38.67c-.07.22-.5.07-.36.5.22.07.29-.14.5-.07,0-.22.07-.43-.14-.43ZM66.58,53.72c.5-.07.94-.14,1.01-.58-.58,0-.86.14-1.01.58ZM69.24,65.96c-.29.22-.43.43-.79.5-.07-.29.07-.29.07-.5-.22,0-.58-.5-.65-.07-.07.22.43-.07.36.14,0,.22,0,.5-.22.58-.5-.14-.58.22-.94.14-.07.29-.22.43-.5.5.22.5,1.66.43,1.94.14.58.5,1.51-.07,2.3.14-.58-.43-1.15-1.01-1.58-1.58ZM67.3,56.6c-.14-.14-.65.07-.58-.29.36.22.36-.14.65-.22-.14.29,0,.36-.07.5ZM66.72,55.52c.07-.22.22-.36.5-.36,0,.29-.22.29-.5.36ZM66.86,47.45v-.14h.43c-.07.07-.29.36-.43.14ZM66.86,52.71c0,.22.07.36.36.29,0-.22-.14-.29-.36-.29ZM67.01,41.55c.07-.22.43-.14.5-.36-.22-.22-.79.14-.5.36ZM67.73,41.33c-.14.29-.65.14-.65.58.36.07.36-.22.65-.29.22.14.29.43.58.5-.07-.22.14-.22.14-.36-.5.07-.36-.43-.72-.43ZM67.37,40.76c.58-.14.94.86,1.22.14-.43-.14-.94-.5-1.22-.14ZM67.73,61.85c0-.22-.14-.29-.14-.5h.36c0,.36.14.5-.22.5ZM70.25,39.1c0,.29-.29.43-.5.29,0,.22.22.29.43.29.22-.22.29-.43.5-.65-.22-.07-.22.14-.43.07ZM70.1,38.45c-.07.07-.14.14-.07.29h.22c0-.14,0-.29-.14-.29ZM81.34,35c.58.36.79,1.15,1.66,1.22,0-.14-.14-.14-.22-.22.43,0,.29-.43.65-.22-.07-.36.36-.22.36-.5-.79-.22-1.66-.94-2.45-.29ZM88.03,37.59h-.43c.22-.58-.43-.94-.79-1.15-.14.07-.22.29-.5.29-.07-.29.14-.22.07-.43-.29-.07-.29.29-.5.07.07-.14.14-.22.22-.36-.72-.58-1.44-.07-2.02.29-.14-.14.07-.14.07-.29-.14-.07-.14.07-.29.07,0,.14.14.22.07.43-.29-.14-.43.22-.65.36-.14-.14-.36-.22-.65-.29,0,.36.43.29.5.58-.14.14-.36.14-.22.5.22.22.43.43.79.58.29-.58.94-.43,1.37-.43-.29-.07-.14-.43.07-.5.43.29.72-.65,1.15-.36.07.72-.58.72-.79,1.22.14.07.36.07.43.22-.5.07-.94-.14-1.3-.43-.29.14-.29.5-.58.58,0-.14.07-.36-.14-.29.07.36-.29.36-.29.79.29.07.14-.29.43-.14-.22.65-.5,1.15-.72,1.66.14.29,0,.86.36.94.5-.07.86-.29,1.37-.36-.29-.72.43-1.01,1.01-1.15-.07.29.14.29.43.36.14-.22-.14-.58,0-.94.43-.07.65-.5,1.3-.43-.14-.5.43-.36.5-.58.07-.5-.58-.43-.29-.79ZM90.19,63.08c-.5.07-.86.5-1.37.36v.22c.22,0,.5-.29.65.07-.72.43-1.37.79-1.73,1.58-.65-.07-1.3.22-1.15.65-.36-.22-.58.14-.94-.07.07-.86,1.08-1.08,1.3-1.51.22.07.36.14.5.29,0,.22-.22.14-.22.36.14.07.29.14.5.14-.5-.43.29-.65-.07-1.22.36-.43,1.15-.43,1.22-1.15-.14-.07-.22-.07-.14-.22-.79.07-.86.36-1.66.43,0,.29-.07.5-.43.5,0-.22,0-.36-.07-.43-.14.07-.5-.07-.5.07.07.14.29,0,.29.14v.36c-1.01.58-2.02.29-2.52,1.44-.36.07-.65.22-.79.58.29-.07-.14.5-.36.29.07.29,0,.36-.07.58.5,0,.07.22.07.36,0,1.01,1.51-.07,1.8-.5.36,0,.65-.43.94-.65-.14.58.65.29.5.94-.29,0-.58-.07-.5.22,1.58-.5,3.17-1.08,4.75-1.66-.43-.5,0-1.44,0-2.16ZM89.19,45.65c0-.29.43,0,.36-.36-.22.07-.29.14-.58.14.07.29.07.43-.22.5-.07-.07-.22-.36-.29-.14.14.07,0,.22.07.43-.14.07-.43.5-.72.22.14-.14.5,0,.58-.14,0-.22-.14-.29-.29-.43,0,.29-.43.36-.58.14-.22.29.29.22.14.58-.22-.22-.65.14-.79-.07.29-.5,1.01-1.22,1.66-1.3,0-.5.65-.43.5-.86.29.22.79-.36.5-.79-.36,0-.29.43-.72.43-.07.14-.14.29-.07.5-.29-.07-.22.14-.43.14-.07-.14.07-.43-.07-.43-.14.36-.43.14-.94.22-.36,1.08-1.8.29-1.8,1.37-.22,0-.43.07-.36.36-.72,0-1.37,1.08-2.02,1.08,0,.29.36.22.29.58-.14.14-.07,0-.29,0v.58c.43-.07.5.36.22.5.5.14.36-.36.79-.29.43-1.01,1.73-1.15,2.45-1.94.29,0,.22.14.43,0,.07.5.43.29.58.5-.72.29-1.3,1.51-2.02,1.15,0,.36-.07.43,0,.79-.29.22-1.01,0-1.08.43.07.07.22,0,.22.07-.43.29-.86.58-1.22.94.07,1.01-.22,1.66.22,2.3.29-.14.65-.29.94-.5-.07.29.22.29.5.29,0-.29-.43-.14-.43-.36,0-.14.22-.14.36-.22,0,.22.5.36.5.07-.36-.22.29-.86.65-.65.07-.29.29-.36.43-.14.07-.29-.29-.07-.14-.36.29,0,.72,0,.79.29-.14.07-.36.14-.36.43.14.14.5,0,.5.29-.07.29-.5.07-.65,0,0,.36-.29.43-.58.43.07.79-.79.58-1.08.58.14,0,.14.29,0,.36-.14-.14-.36-.07-.36-.36-.22,0-.22.14-.36.14-.07.5.22.5.36.72-.22,0-.36.07-.43-.07-.36.65-1.3,1.01-.72,2.02.72-.14,1.08-1.01,1.8-.72-.07-.07-.29,0-.22-.22,1.01-.22,1.51-1.3,2.3-1.44.14-.5.72-.58,1.01-.94.14.07.14.14.22.22-.14.22-.43.5-.07.72-.36-.14-.29.14-.29.36.29.07.29,0,.58.14,0-.29.43-.14.29-.5-.29,0-.43-.07-.43-.36.36-.07,0-.65,0-.79.29-.22.58-.43.58-1.01-.36.43-.79.14-1.15.07.29-.29.65-.43,1.15-.5.14-.36.14-.65,0-1.01-.65.14-1.08.07-1.58.36q0-.07-.07-.14c.29-.29.65-.79,1.22-.58,0-.14-.07-.14-.07-.29,1.01-.43.65-2.38.79-3.46-.29-.07-.43.22-.5-.07ZM83.28,62.5c-.07.07-.22.58.07.5.14-.07.22-.22.14-.43-.07,0-.07-.07-.22-.07ZM86.59,40.9c.07.07.14.14.07.22-.07,0-.14.07-.14.07-.22-.07-.36-.43-.58-.14-.22.07.22.14.14.36-.22,0-.5.07-.65-.07,0,.72-.79.79-1.08.94,0,.14-.07.29-.14.36-.43.36-.79.94-.94.65.07.22-.07.29-.07.43.43,0,.29.5.43.72,1.15-.5,1.94-1.73,3.1-1.94.43-1.22,2.02-1.3,2.38-2.52-1.37-.5-1.51.79-2.52.94ZM88.83,54.65c-.07-.22.36.07.29-.14-.22-.29-.22.07-.58.07-.22-.22-.29-.58-.5-.79-.07.29-.29.36-.36.58.65-.07,0,.29.29.5.29.07.22-.22.43-.22.14.22-.07.65-.29.72-.72-.36-2.3.72-2.02.86-.43.07-.5.14-.94.07.22.29-.14.36.07.79-.43-.07-.79,0-1.15.07-.07.43-.36.94-.72.65,0,.43.22.29.07.72.36-.07.36.29.5.43-.14.07-.14.29-.14.43.29,0-.07.36.14.58.86-.07,1.3-1.3,2.16-.79,0-.22-.14-.22-.07-.43.94.07,1.15-1.44,1.94-1.01v-.43c.29,0,.36-.43.72-.14.58-.72.86-1.15.72-2.23-.14-.22-.5-.14-.58-.29ZM83.86,33.84c-.14,0-.29-.07-.36.07.14,0,.36.29.43.07-.07,0-.07-.07-.07-.14ZM88.83,59.84c.14.36.07.36-.14.72,0-.14-.5-.14-.43,0,.14.5-.36.36-.58.58,0-.07-.07-.07-.07-.14.14-.07.29-.14.5-.22.07-.36-.22-.36-.29-.58.58-.36.72-1.08,1.58-1.22-.07-.29.29-.29.29-.58-.22,0-.07-.29-.22-.29,0,.22-.07.36-.29.36-.07-.14-.22-.07-.07-.29-.65.58-1.22-.72-1.58.07h.72c1.3,1.01-1.44.79-1.58,1.73-.14-.14-.36-.07-.58-.07,0,.29-.43.36-.72.22-.22.43-.5.79-1.22.79.22.29,0,.79-.29.58-.14.36-.5,1.58.29,1.58-.07-.22.07-.5.36-.58.14.29-.22.29,0,.5,1.44-.22,1.73-2.23,2.95-2.66.07.29-.14.29-.22.36-.07.29.22.22.29.36-.72-.22-.07.5-.58.79,0-.22-.07-.43-.29-.43-.14,0-.14.14-.29.14,0,.29.29.22.29.5-.07.22-.5.07-.5.36.79.5,1.8-1.01,3.1-.58.14-.29.43-.43.72-.5-.07-1.01-.22-1.51-1.15-1.51ZM84.14,63.15c-.07.22.14.22.07.43.29,0,.29-.22.36-.43h-.43ZM89.26,41.76c-.86.07-1.22,1.01-2.02.94.07.72-.65.86-1.01.94.14,0,.14.22.29.36-.79.29-1.37.79-1.87,1.3.58.22.5-.36,1.01-.22.07-.58.65-.72,1.01-.43-.14.07-.29.07-.36.22.29-.07.5-.07.65-.22.14-.29-.22-.07-.14-.36.22-.29.86-.22,1.15-.5,0,.14-.14.22-.14.36.65.07.79-.29,1.22-.43-.22-.22-.07-.36.07-.65.29.07.36-.07.58-.14,0-.5,0-1.08-.43-1.15ZM84.72,62.57c-.07-.07-.07-.29,0-.36.36.5.29-.5.86-.22-.07.5-.58.43-.86.58ZM85.51,43.35c0,.29.29.22.58.22,0-.29-.43-.36-.58-.22ZM86.23,47.45c.07.36-.07.5-.36.43,0,.14,0,.22.07.29.36-.07.5-.36.72-.58-.22.07-.22-.14-.43-.14ZM86.02,66.17c0-.22.36-.14.29.07-.14.22-.14,0-.29-.07ZM86.31,51.56c0,.22.07.36.29.36,0-.22-.07-.36-.29-.36ZM86.81,54.87c0,.14.07.14.07.29.22,0,.22-.14.22-.29h-.29ZM86.88,50.84c.07-.43.5-.5.94-.58q-.22.29,0,.58c-.22.14-.5.07-.94,0ZM87.24,54.44c-.07.14.07.22.07.36.5.07.29-.65-.07-.36ZM87.39,51.56c.29,0,.43.22.79.22-.14.58-.79.07-.79-.22ZM87.46,39.96h.29c.07-.29-.36-.29-.29,0ZM87.67,39.17c0,.5.79.43.79,0h-.79ZM89.91,66.17c-.07.29-.14.43-.5.36-.22-.14.07-.36-.22-.43,0,.29-.14.36-.29.5-.14-.07-.22-.22-.5-.14.22.65-.43.5-.65.5v.36c1.08.14,1.8,0,2.88-.14.07-.65-.29-.86-.72-1.01Z"/>
      <path class="cls-1" d="M118.27,69.99c-.36-.43-1.37-.29-1.8-.65-.36.22-.72,0-1.08.29-.5-.22-.72-.22-1.37-.07-.79-.43-2.09-.22-2.81.14-.29-.07-.72,0-.72-.29-1.66,0-3.38.43-4.82,0-1.01.29-3.24-.22-3.82.36-1.08-.5-2.52.58-3.96.07-.29-.07-.72-.36-.72-.72,0-1.08,2.52-1.08,3.53-1.22,1.3-.22,2.66-.5,3.31-1.22-.22-.14-.43-.22-.65-.29-.22-1.15.65-1.73,1.37-2.23-.29-4.1.36-8.64.36-12.17-.58-.07-.36-.5-.94-.5-.07-.22.29-.43-.07-.43.07-.29.65-.14.72-.58-.29.14-.22.22-.65.14.36-.94,1.44-1.44,1.01-2.88-.29.07-.58.07-.86.14-.5,0-.43-.58-.72-.79.58-.07.94-.5,1.44-.72-.22-.65.36-.94.22-1.44-.14-.79.5-2.09.22-3.17-.43.29-1.01.14-1.37-.14.07-.22.22-.5.07-.79.5-.22.79-.79,1.08-1.22-.22-.29-.43-.58-.22-.86-.29-.07-.14.22-.43.22.07-.36.14-.58-.22-.58-.07-.29.22-.14.14-.43-1.58-1.8-4.68-.86-7.42-1.08-.14-.36-.43-.58-.29-1.15.14-.07.22-.14.29-.29,2.45-.29,4.68,0,6.99,0,.07.07,0,.22.14.22.79-.22,1.58-.72,2.16.07.14-.07.07-.36.22-.43,1.8-.07,4.18-.07,5.76-.5.29.29.29.86.79.94-.07.5.07,1.51.29,2.02-.07.22-.22.36-.29.58.14.5.86.43,1.15.86-.65.94-1.15,1.73-.79,3.1.14.29.58.43.65.79-.79.86-.94,2.45-.29,3.24-.14.14-.36.29-.58.65,0,.29.36.43,0,.65.14.07.22.14.36.22.36,0,.36-.29.72-.22-.5.58-1.8,1.58-1.08,2.59-.14.29,0,.43-.22.72,0,.22.36.07.5.07-.14.22,0,.14,0,.36.29.14.22-.22.43,0-1.3.94-.65,3.17-1.15,4.39.65.36-.43,2.02.36,2.3,0,.58-.43.79-.65,1.22.36.58,0,1.37.43,1.87-.14,1.66-.36,4.18,1.15,5.54.22.22.65.29.94.58.36.29.22.22.79.43.29.14.43.5.58.5,1.08.36,3.02.07,4.61,0,.07.5.5.65.29,1.15-.14.14.07.14.22.14-.65.79-2.16-.14-3.31.5ZM113.52,22.97c.14,1.44-1.37,1.94-1.94,3.02-.29,0-.5-.07-.65-.22-.22.07-.14.43-.22.58-1.3.58-2.16-.5-3.67-.58-.14-.22-.22-.36-.07-.58-.36-.07-.14.43-.58.29-.43,0,.14-.14.07-.43-.14-.07-.36.07-.65,0-.14-.58-.86-.58-.86-1.3-.29-.07-.29.07-.58.07-.14-.22-.29-.36-.36-.58.22-.14.07-.72.43-.79.07-1.51,0-2.81.86-3.53q-.07-.22,0-.5c.07-.07.22-.07.36-.07.22-1.15,1.37-1.44,2.16-2.09,1.51-.29,3.02.5,4.54,1.22v.29c.43.07,1.08,1.3,1.3,1.8.14.36.5.65.58.79.22.94-.14,2.02-.72,2.59ZM104.16,39.32c0-.22.14-.36.36-.36.14.14-.14.36,0,.36-.07.22-.14-.07-.36,0ZM109.56,66.1c.22-.07.36-.14.58-.14,0-.5-.58-.29-.58-.79-.07.14-.36.07-.36.29.07.14.29.14.36.29-.29.14-.72.5-1.08.22-.22.43-.86,1.01-1.37.72-.22.14.14.22-.07.29-.36-.14-.58.43-1.01.5-.43-.14-.58-.29-.58-.58-.36.36-.79.58-.94,1.15.94.07,3.17.65,3.67-.5.29-.07.22.14.43.07.22-.29.43-.65.72-.86.29.07.07.22.07.5.22,0,.58.07.58-.14-.07-.14-.29-.07-.22-.29.22,0,.29-.14.43-.29-.22-.14-.43-.22-.65-.43ZM104.95,36.72c0,.36.5.79.79.72-.36-.22,0-.5.43-.36-.07-.22.07-.22.14-.36-.5-.14-.94-.07-1.37,0ZM112.44,44.79c-.65.22-.86.79-1.51,1.01-.07-.22-.36-.36-.36-.65.07-.36.58-.14.72-.22-.29-.22.43-.14.43-.29-.5-.22.14-.72.36-.94-.07,0-.14-.07-.07-.14h-.43c0-.14-.14-.22-.14-.36.07,0,.07-.07.14-.14.14.07.36.5.5.36-.14-.14-.22-.22-.36-.36.5-.5.65-.79.58-1.73-.36,0-.58-.65-.58-.79.22-.07.58.07.58-.07-.29-.22-.43-.14-.72,0,0-.07-.07-.14-.07-.14.22-.14.36-.36.58-.43.07-.29-.36-.07-.29-.43.5-.5.5-2.23,0-2.88-.65.07-1.01,1.15-1.66.65-.07.43-.5.58-.86.65.22.65,1.37.14,1.51-.29.43.22.5.36.79.72-.43.29-.58.86-1.37.86-.07.29.29.07.29.29-.29.14-.72.14-.86-.07.22.36-.07.5-.22.72-.07-.14-.36,0-.36.07.14.14-.07.58-.36.5-.07.29.22.5,0,.58-.22-.29-.5,0-.79-.22-.22.22.22.22.14.58-.14.07-.5-.07-.36.22,0,.07.22,0,.22.14-.14,1.22-1.87.79-1.37,2.23.43-.07.29.22.43.58.14,0,.29-.07.36-.14-.07-.14-.36-.07-.29-.36.43,0-.07-.65.43-.65-.14.14.07.14.14.36-.14.07-.36,0-.29.22.29-.07.07.36.36.29-.07-.14.22-.86.43-.43-.14,0-.22,0-.29.07,0,.29.29-.07.29.14v.36c-.29-.07-.36.14-.5,0,.07.29-.29.36-.43.22,0,.36.79.43.65.07.22.07.22.36.58.29.07-.29-.07-.36.07-.58-.29-.07-.5-.79,0-.65.07.22-.14.14-.14.29q.29.07.5.22c0-.07,0-.29.07-.29.22,0,0,.36.29.22.22,0,.07-.29.07-.43.14-.07.29-.14.5-.22-.07-.14,0-.29.07-.36-.22-.22-.36-.43-.43-.72.22.22.43,0,.65.14-.22-.07-.36.36-.14.43.07-.22.36.07.58.07.07-.43.58-.43.94-.58.07.36-.14.43-.5.43-.22.14,0,.36-.29.43.29.29.72-.14.86,0-.07.29-.65.07-.65.43-.29-.07-.22-.43-.65-.43.07.72-.94,1.15-1.44,1.15-.07.79-1.22,1.08-1.87,1.58,0-.07-.07-.07-.14-.14,0-.14.22-.14.22-.36-.14,0-.22.14-.36.07.36.65-.79,2.02,0,2.59.14-1.01,1.15-1.15,1.8-1.44,0,.07.07.14.07.29-.22.07-.22-.14-.43-.07.07.22.22.36.43.5-.14-.79.65-.65.86-1.15-.07.29.22.22.22.36-.36.22-.79.5-1.01.86-.36-.07-.72-.07-.86-.07.5.36-.5.79-.29,1.22-.22.07-.43.14-.36.5.07.22.43-.14.43.22-.14.07-.07.43-.36.36-.14-.07,0-.36-.36-.29-.14.22.22.43.29.79-.36.14-.29.72-.79.72-.14.72-.22,1.3-.29,2.02.36.14.65.14.94-.14-.14.36-.36.72.07.86.07-.29.36-.36.5-.5.07.07.14.14.22.22-.14.22-.22.36-.07.58-.22.14-.36.36-.58.43.14.86-.72.36-1.15.58,0,1.22.07,3.38-.22,4.68.36.14.22.43.14.5.79.07,1.44-.65.79-.86.14-.14.22-.29.43-.36.29.36-.22.65.22,1.01-.14.07-.29.22-.22.5.07.14.36,0,.29.22-.14-.14-.29.07-.65,0,.22.36-.14.36-.29.58.14,0,.36-.14.36.07-.14,0-.07.22-.22.29h-.36c-.07.22-.29.29-.5.36,0,.36-.14.43-.07.79.22.14.72.07.72.43.36,0,.5-.14.79-.14.14-.43.29-.72.29-1.08.14.14.07.5.07.72.5-.07.07-.36.14-.65.14,0,.43.07.43-.14-.07-.14-.43,0-.43-.22,0-.29.29-.29.58-.29-.14-.29.07-.36.36-.22-.07-.65.58-.58.72-.94.07,0,.14.07.14.22h-.22c0,.43.07.5.29.22.29.14-.29.36.07.36.36.07.07-.43.5-.36-.07-.29-.22-.5-.5-.65.22,0,.29-.58.58-.29-.36.22-.22.58.22.65,0,.14-.22.14-.22.36.22.14.5.07.65.29.07-.36-.07-.29.5-.29,0-.14-.14-.22-.07-.43.22-.14.5-.36.5-.72-.43,0,0-.14-.07-.36-.29-.14-.29-.07-.65,0,.22-.65-.29-.07-.65-.29.22-.36.5-.22.58-.65.07.14.22.22.5.22q.14-.36-.07-.72c.07,0,.14,0,.14-.07-.43,0-.5.29-.79.43.14-.22.14-.58.36-.65-.14.36.29-.07.43-.07-.07,0-.22-.07-.14-.14.79-.43.5-1.37.65-2.38-.29.14-.07-.22-.36-.14-.07.22-.14.43-.43.5-.14-.22-.43-.14-.5-.43.79.29.72-1.08,1.44-.94-.07-.36-.36-.5-.36-.94-.36.07-.29.65-.58.86-.5-.22.22-.5-.29-.58.36-.22.22-.86.79-.86,0-.29-.14-.65-.14-.72-.22.22-.72.22-.79,0,.43,0,.43-.36.86-.14.07-.22.29-.14.29-.43-.36-.43-.07-1.01.14-1.37-.14-.14-.36-.14-.43-.29.14-.22.14-.58.29-.79-.14-.07-.43.07-.43-.14.22-.43.72-.65.72-1.3-.14-.22-.22-.43-.29-.43.36-.5.14-1.15.65-1.51-.22-.29,0-.5-.14-.86ZM105.81,21.17c.5-.43,1.22-.58,1.58-1.08-.65.22-1.44.36-1.58,1.08ZM105.96,60.63c0,.14-.22.22-.07.36h.29c-.07-.14.07-.5-.22-.36ZM108.19,20.45c-.22,1.15-2.02.79-2.23,2.02.94,0,1.44-.36,1.87-.79,0,.07,0,.29.14.22.22-.72,1.3-.5,1.58-1.08.14,0,.22.14.43.14,0-.43.58-.22.79-.14.14-.5.5-.79,1.01-.86-.22-.14.29-.14.29-.29-1.08-1.51-2.66.72-3.89.79ZM108.84,62.86c.14-.07.29.22.07.22-.22-.22-.72-.36-.86.07.22.14.14.36-.07.14-.07.36.36.14.43.36-.07.07-.14.14-.22.14-.22-.36-.36.07-.5.22-.14-.29-.07-.36,0-.72h-.43c.29.43-.29.5-.36.86,0,.07.14,0,.14.22-.43.36-.79.86-1.08,1.44.36-.07.22.14.22.29h.29c-.07-.29.36-.43.14-.72.36-.22.58-.58.86-.79,0-.22-.29-.36,0-.58.14.07.07.29.29.29.22-.22.65-.58,1.08-.36.07-.29-.07-.29-.07-.5.43-.07.5-.36.79-.43-.07-.22.07-.29.07-.5-.29.07-.58.14-.79.36ZM106.75,37.73c-.07,0-.14-.14-.29-.07.07.43-.43.36-.43.79.14.22.36.36.65.43.22-.43.5-.29,1.01-.43-.07-.22,0-.36.14-.43.29-.14.22.07.5.14.22-.29.29-.58.29-.86.5-.14.94-.36,1.3-.79-1.01,0-2.38.58-3.17,1.22ZM106.18,39.03c.14,0,.07.22.29.14q0-.14.07-.22c-.22-.07-.36-.22-.36.07ZM106.61,63.15c-.14,0-.29-.07-.29-.14,0-.29.29-.29.58-.29-.14.14-.22.29-.29.43ZM107.11,22.75c-.36.14-.65.36-.72.65.36-.07.79,0,.94-.22-.07-.07-.36,0-.22-.43ZM106.46,41.48c.22.07.36.07.58,0,0,.22,0,.43.22.43.14-.43-.22-.36-.22-.65.22,0,.36-.07.29-.22-.29-.43-.58.36-.86.43ZM108.55,56.96c.07.14.36,0,.36.22.07.29-.14,0-.29.07-.22.22.14.14.07.5h-.29c-.14-.14-.22-.72.07-.72-.14-.14-.36-.36-.58-.22.22.43.29.58.29,1.01-.29-.14-.58-.07-.72.29-.22-.07-.36-.36-.79-.36-.07-.29.5-.65,0-.72.43,0,.86-.72,1.15-.36.14-.14.22-.65.36-.29.22-.07.07-.43.14-.58-.14.07-.43-.07-.43.07-.07,0-.07-.07-.07-.14v-.14c.36.22.58-.07.58-.5h.22c-.07.36.14.43.07.72-.14,0-.22.07-.29.07.14.14.5.14.86.14.07.65-.65.43-.72.94ZM106.89,52.92c.14-.07.14-.29.36-.29v.5c-.22,0-.14-.29-.36-.22ZM107.26,42.27c0,.22,0,.43.14.43.14-.14.14-.43-.14-.43ZM107.33,65.09c.5.29,1.01.14,1.58.36-.07-.29.22-.22.22-.43-.94.14-1.37-.58-1.8.07ZM107.4,59.4c-.14-.43.65-.43.58-.07-.29-.07-.36.07-.58.07ZM108.84,38.38c-.22.5-1.3.29-1.44,1.08.79.14.94-.07,1.66-.14,0-.29-.22-.36-.22-.65.29.07.5,0,.5-.22-.14-.07-.22.07-.5-.07ZM107.83,60.2c-.14,0-.07.22-.07.36-.07-.22-.36-.22-.36-.5.29-.07.29.14.58.07.14.07-.07.07-.14.07ZM107.47,24.12c1.3-.36,2.02-.79,3.31-.86-.79.58-1.73.94-2.45,1.58,2.66.94,4.9-1.73,4.61-4.25-2.16.86-4.1,1.87-5.47,3.53ZM107.76,54.44c0-.22-.14-.14-.07-.36.14-.07.14-.22.36-.22.07.36.14.58-.29.58ZM107.69,40.54c0,.5.58.14.72-.14-.29-.29-.36.22-.72.14ZM107.9,17.79c-.14.14-.22.5.07.5-.07-.14.07-.43-.07-.5ZM108.05,53c0-.07-.07-.07-.14-.07,0-.58.43-.72.5-1.3.14,0,.07.14.22.14-.36.43.14,1.01-.58,1.22ZM107.97,62.14c.14-.14.5,0,.58-.14-.14-.14-.58-.14-.58.14ZM108.19,53.86c.14-.07.14-.29.14-.43.14-.07.29-.14.43-.22-.14.29,0,.43.07.65-.14.22-.36,0-.65,0ZM108.41,63.29c-.07-.22.29-.07.29-.22.22,0,0,.29,0,.36-.14,0-.22-.07-.29-.14ZM108.48,41.91c-.22-.22.07-.14.07-.43.29.14.43-.07.86,0-.14.29-.72.43-.94.43ZM108.77,43.42c.14.22,0,.29,0,.65-.43-.29.07-.72-.22-1.22.07.14.43.14.5-.07.22,0,0,.58.43.43-.14.29-.43.14-.72.22ZM108.55,65.81c.14.14.36-.07.5-.14-.22,0-.5-.07-.5.14ZM108.84,61.71c.22,0,.65-.14.43-.29-.22,0-.79-.14-.43.29ZM110.14,46.59c-.14.07-.36.07-.36.14-.14,0-.22-.14-.22-.29h-.43c-.22,0-.14.29-.29.43-.29-.79.86-1.3,1.66-1.58v.43c-.29-.29-.43.22-.58,0-.14.22-.07.43-.43.22.22.43.58.14,1.01.29.07-.14.07-.29.07-.5.29-.07.22.43.14.58-.29,0-.72-.14-.58.29ZM109.92,51.05c-.22,0-.22.43,0,.43-.14.22-.43.22-.5.5-.14-.07-.29-.14-.5-.22.43-.22.65-.65.86-1.08.36-.07.07.58.43.29.07.29-.36.58-.29.07ZM109.13,55.3c-.07,0-.07-.07-.22-.07v-.14c.22-.07.14,0,.43-.07.07.22-.29.07-.22.29ZM109.2,66.39c.22-.07.36.07.36.29-.14-.07-.43,0-.36-.29ZM109.2,42.56c.07-.14.14-.29.22-.43.07.07.22.14.43.07,0,.58-.5.22-.65.36ZM109.34,55.66q0-.14-.07-.14c.07-.14.36-.14.5-.22-.07.22-.22.29-.43.36ZM109.92,62.93c-.07.22.22.07.22.29-.36.07-.36.5-.86.43,0,.29,0,.79.29,1.01,0-.14.22-.07.22-.29-.07-.14-.22-.07-.22-.22.22-.14.29-.22.22-.5.07.07.14.07.36.07.07-.22.07-.58.07-.86-.14,0-.22,0-.29.07ZM109.34,48.1c0-.07.36-.22.43-.07v.14c-.29.07-.22-.07-.43-.07ZM109.49,38.45c0,.22,0,.29.14.29.07-.14.36-.07.43-.22-.07-.07-.36-.07-.58-.07ZM111.5,65.53c-.22.22-.14,0-.43,0-.07.29.07.72-.43.72-.07-.14.22-.22-.07-.22-.29.29-.5.79-.43,1.22-.29.07-.65.07-.58.58.94-.22,2.02-.29,2.81-.65.14.22.65.29.79.07-.65-.36-.86-2.81-1.66-1.73ZM111,41.76c.5.65-1.22.5-1.37.07.65,0,1.08-.14,1.44-.22.29-.36-.14-.29-.29-.36.14-.14.29-.36.29-.58.22,0,.14.07.14.14,0,.14.22.07.29.22-.14.36-.14.29,0,.72q-.22.07-.5,0ZM109.85,55.23c-.07-.22-.22-.43-.22-.72.29,0,.22.36.43.36.14-.07.07-.36.29-.29-.07-.14-.22-.22-.22-.43.14-.14.43-.43.65-.29-.07.36,0,.29.07.58-.43.22-.65.58-1.01.79ZM110.78,56.24c-.22,0-.14-.22-.22-.29-.22.29-.5.58-.79.5.36-.22-.22-.65.43-.72.14.43.29-.29.72-.07-.14.22-.29.22-.14.58ZM111.79,62.43c-.29-.07-.58-.36-.94-.14,0,.29.5.07.5.43-.14.07-.5,0-.58.14v.36c-.86.07-.43,1.01-.58,1.44,0-.07,0-.29-.14-.22,0,.22,0,.43.07.58.36-.07.5-.5.72-.14,0-.22,0-.36.14-.36.36.07.72.14.94.36.14-1.01-.22-1.51-.14-2.45ZM110.14,50.76c.07-.36.29-.5.5-.72.22,0,.14.29.14.5-.36-.22-.43.14-.65.22ZM110.5,65.24c.14.07.5-.29.14-.29.07.22-.29,0-.14.29ZM110.57,50.91c0-.22.07-.29.29-.29,0,.22-.14.29-.29.29ZM110.93,60.63c-.07-.07-.22-.14-.29-.22.07-.22.43-.22.36-.5.5.07,0,.43-.07.72ZM110.71,49.54c.07-.14.29-.22.29-.36.22-.07.14.22.29.22-.07.22-.43.36-.58.14ZM110.86,49.97c.22,0,.22.29.36.5-.36,0-.29-.29-.36-.5ZM111.29,55.88c.14,0,.29-.14.5-.07-.07.07-.5.43-.5.07ZM114.38,46.73c.22.14.36.43.36.72-.14-.14-.58-.36-.36-.72ZM115.32,46.59c-.29-.22-.43-.14-.86-.14-.14-.43.65-.5.94-.22.07.14,0,.29-.07.36Z"/>
      <path class="cls-1" d="M153.26,59.12c0,.29.22.36.29.65-.65.07,0,1.15-.58,1.44-.22,0-.22-.29-.43-.07,0,.58-.07,1.08-.72,1.3-.14.22.29.29.07.36-.72,1.08-1.01,2.59-2.59,2.81.22.36,0,.29,0,.72-.29,0-.29.29-.58.22-.14.5-.94,1.01-1.51,1.3-.36.65-1.01,1.01-1.51,1.44-1.22.43-2.45,1.3-3.96.94-.22,0-.22.22-.36.29-1.01-.29-2.02.36-2.88.29-.5,0-1.01-.14-1.37-.36-.36.14-.94.07-1.3,0,0,0,.14-.14.14-.07-.07-.22-.36,0-.79-.14-.58-.07-.58-.22-1.15-.36-.36-.07-.79-.36-1.15-.5s-.5-.43-.86-.65c-.29-.14-.65-.07-.86-.22-.29-.14-.43-.58-.79-.43-.65-.5-1.15-1.08-1.94-1.3-.36-.79-1.01-1.37-1.8-1.8,0-.29-.07-.65-.43-.65-.36-1.22-1.58-2.02-1.73-3.24-.65-.07-.5-.72-.94-.79.22-1.15-.07-2.16-.14-3.38,0-.14-.22-.14-.36-.22.29-.65.29-1.73-.22-2.38.07-.86.36-2.02.07-2.95,0-.29-.29-.5-.22-.79.07-.72,1.15-1.08.79-2.02,0-.07-.14-.14-.29-.14.14-.65.5-1.15.94-1.58v-.43c.72-1.15,1.15-2.3,1.73-3.38.29-.43.65-.72,1.01-1.15.29-.36.43-.94.86-1.3.58-.43,1.3-.72,1.94-1.15.65-.5,1.15-1.3,1.73-1.87,1.22-.22,1.73-1.15,2.52-1.73.22-.07.22.07.36.07,1.44-.79,3.1-1.51,4.46-1.94,1.73.14,3.38-.14,5.11-.07,2.23,1.8,5.04,2.95,6.41,5.62.07.22.07.14,0,.36.58.65.65,1.66,1.22,2.3-.29.79.36,1.44.65,1.94-.36.43-.14,1.01-.07,1.58,0,.29-.22.22-.29.36,0,.94-.07,1.8-.86,2.02-.22.86-1.51,1.15-1.58,1.87-.43-.07-1.01-.14-1.3.07-.29.07-.14-.22-.29-.22-1.3.22-2.66.5-3.6-.14-.22-.79-.94-.94-1.58-1.3.07-.86.07-1.58-1.15-1.37-.22-.43.22-1.66.72-1.58.14-.29.07-.79.43-.79.36-2.3,2.23-3.1,3.89-4.18.65-1.94-.94-2.52-1.51-3.74-.58.07-.72-.36-.79-.79-.5-.72-1.73-.72-2.74-.86-.29.22.22.36,0,.65-.29,0-.22-.36-.43-.36-2.88-.36-5.04,1.44-5.83,3.46.22,0,.65,0,.65.36-.65.43-.94,1.15-1.58,1.58.07.36.14.72-.29.94.07.14.29.07.43.14-.14.79-1.08,1.44-1.3,2.09-.14.65,0,1.51-.22,2.16.58-.22.72-.36,1.37-.14-.14.72-.86.5-1.15.86-.86,1.01.07,2.81-.58,4.1.72-.14,1.22-.58,1.73-.65-.58.86-2.38,1.87-1.44,3.17-.43.65,0,1.73.58,1.58-.22.22-.22.65-.14.94-.07.07-.29.07-.36.14,0,.65.07,1.22.58,1.44-.22.5-.43,1.22-.22,2.09.72.07,1.51.29,1.73-.43.36-.14.07.29.36.22,0,.36-.5.65-.14.94-.22.22-.36-.22-.65-.22-.07.14-.07.43.07.43-.43.58-1.22,1.8,0,2.09.29,0,.14-.43.29-.58.65-.22.94.14,1.37.43-.22.14-.14.22-.14.5-.36.14-.65.43-.58,1.01-.22-.07-.22,0-.36.07.07.43-.22.43-.07.72.43.58.72,1.22,1.3,1.58.5,1.66,2.59,1.8,3.89,2.74.58-.07,1.44.22,2.02-.14,1.22.36,2.23-.29,2.88-.94h.43c1.66-1.22,2.95-2.88,4.39-4.39.07-1.73.72-3.67.65-5.4,0-1.44-.14-2.38.79-3.24,2.09-1.15,2.95,1.66,2.23,3.24,0,.43-.14.5.07.79-.14,0-.14.22-.43.14ZM130.01,51.2c-.58-.14-.72.86-1.37.86.07.07.14,0,.14.07-.22.43-1.01.5-.86-.14-.14-.07-.29-.14-.43-.14-.07.36.22.79.43,1.01-.14,0-.07.22-.29.22-.14-.14-.14-.29-.07-.5-.36-.14-.43.22-.72-.07-1.01.58-1.87,1.01-2.52,2.09.43.14.79.14,1.3.36-.07.22-.36.22-.29.58.22-.07.29.14.5.07.14-.22.14-.5.5-.58,0-.22-.22-.36.07-.43.07.14.29.14.36.29-.22.07-.36.29-.14.43.29-.36.79-.5,1.22-.72-.07-.14-.36-.14-.36-.36.29-.36.58.07.79.36,0-.36,0-.65.07-.72.14-.07.14.14.36.07.14-.29-.29-.36-.07-.43.36.14.36-.14.58-.14.07-.22-.14-.22-.07-.36.14-.14.29-.29.5-.14v-.29c.72-.22,1.94-.94,1.66-2.16-.29.43-1.44.22-1.3.79ZM129.65,44.86c.07.22-.36.29-.14.36.07-.22.22-.22.29,0-.43.29-.94.58-1.44.79-.07.58-.86.43-1.22.72-.29.22-.36.79-.72,1.08-.22.29-.5.36-.65.5-.36.29-.86.58-1.08.94.29,0,.29-.36.65-.36-.14.58-.79.58-.58,1.3-.14,0-.22-.14-.29,0,.29.14.14.5.14.79.14.07.14.22.43.14-.22-.58.58-.36.58-.86.22.14-.14.43.07.43.07-.07.14-.14.22-.14.07-.22-.14-.22-.14-.43.14-.07.29-.14.5-.22,0-.14-.07-.14-.07-.29.29-.14.22-.22.58-.14.07-.36-.36-.07-.29-.36.29,0,.58-.29.79-.07-.29.07-.36.43-.36.79-.29,0-.36.22-.5.29,0,.14.07.14.07.29-.58.43-1.15,1.01-1.8,1.37,0,.29-.07.58.14.65.07-.22,1.01.07,1.08-.43-.07-.07-.36-.22-.22-.29.5,0,.65-.29.86.07.07-.43-.43-.36-.5-.65.94-.14.58-1.08,1.51-1.22,0-.22-.22-.14-.22-.36.43-.22.79,0,1.01.22,0-.14-.14-.43.07-.5.22.07.07.5.36.43,0-.14.22-.07.22-.29-.5.07-.14-.29-.5-.36.07-.14.29-.22.58-.22.07-.29-.14-.29-.14-.43.86-.72,2.52-1.08,2.52-2.38-.58,0-.94.65-1.3.07.5.29.58-.79,1.01-.14.07-.94.86-1.15.79-2.3-.86.36-1.3,1.08-2.3,1.22ZM126.19,55.23c-.14.43-.65,1.01-1.08.65.36.58-.29.43-.29.94.5-.07.65-.5,1.22-.5-.14-.5.36-.29.5-.58-.14-.14-.07-.5-.36-.5ZM125.76,54.87c-.14-.07-.36-.14-.36-.36-.14,0-.22.07-.29.22-.22-.22,0-.65.36-.58.22.36.5.22.94.07-.22.29-.29.58-.65.65ZM125.9,57.68c-.29.14.07.36-.22.43-.14-.36-.36-.07-.65,0,.07.22,0,.36.14.65.5-.14.79-.43,1.15-.43-.22-.14-.22-.5-.43-.65ZM126.62,54.08c-.29,0-.5-.14-.79-.22.22.22-.07,0-.29.14.07-.22.14-.36.36-.43.14.43.58-.07.72-.14-.14-.07-.29-.22-.22-.58.36.14.22-.22.5-.22,0,.36.36.36.22.86-.36,0-.36.36-.5.58ZM129.14,59.91c0-.22.29-.07.22-.29-.29.07-.65.14-.43.58-.29.07-.58.14-.86.29.29.36-.72.65-1.08.86-.43-.14-.86-.14-.86-.72.07-.22.29-.43.65-.43-.22-.36.22-.58.5-.65v-.43c-.79.14-1.22.65-1.58,1.22.29.86.72,1.58,1.15,2.3.79-.07,1.37-.65,1.51-1.22.22,0,.29.36.43.07-.07-.14-.36-.14-.29-.43.29.07.29-.14.79-.14-.07-.72.65-1.15.65-1.58-.22.22-.29.65-.79.58ZM132.38,41.4c-2.52,1.37-4.61,3.17-6.55,5.26.58.22.86-.65,1.44-.36v-.36c.65.07.72-.72,1.22-.5.07-.36.29-.5.43-.79.29-.07.22,0,.58,0,.07-.22-.07-.29-.14-.36.29-.07.58-.22.86-.29.5-1.15,2.02-1.22,2.38-2.45-.07-.14-.14-.14-.22-.14ZM126.26,57.75c.14.07.14.22.36.14.14-.22-.29-.29-.36-.14ZM126.41,51.92c0,.22.29.14.43.22,0-.22-.29-.36-.43-.22ZM126.55,44.64c.43-.36.79-.65,1.15-1.01-.43-.65-1.15.72-1.15,1.01ZM126.98,57.17h.36c.07-.36-.43-.29-.36,0ZM127.34,57.82c.29.14.65-.07.86-.29-.29-.36-.86-.22-.86.29ZM127.56,48.96c.14-.5.36-.86.79-1.01-.22.29-.29.43,0,.72-.36,0-.36.43-.79.29ZM127.77,49.9c-.14.14-.29.5,0,.58-.14-.36.36-.14.29-.36-.14,0-.07-.22-.29-.22ZM127.99,50.84c.07.29-.14.29-.14.5.22,0,.43-.14.43-.43-.14,0-.14-.14-.29-.07ZM130.15,54.94c.07.22.5,0,.43.29-.72-.14-.65,1.08-1.22.5-.22.22.14.22.07.43-.29.07-.5.43-.86.22.07.43-.43.29-.65.5.07.14-.07.5.14.43.29-.07-.07-.14-.07-.29.29,0,.65-.22.72.07-.07.14-.07.22-.07.43h.43c.07-.29-.36-.14-.29-.43.5.07,0-.22.22-.29.94.07.94-.86,1.73-.94-.14-.07-.43.07-.36-.14.29-.29,1.44-.58.86-1.3-.29.29-.79.5-1.08.5ZM127.92,59.19c.14.07.14.29.36.36.14-.22-.14-.58-.36-.36ZM132.17,64.37c-.22.94-2.45,1.8-2.74.65-.07-.5.22-.94.58-.94-.07,0-.14-.07-.14-.14.22-.14.36-.36.65-.43.07-1.08,1.44-.94,1.51-2.16-1.01.14-1.37,1.22-2.23,1.15,0,.29-.14.29-.36.22-.22.14,0,.29-.22.43-.22,0-.22-.29-.58-.22-.07.29.14.22.14.36-.22,0-.43-.07-.5.07,0,.29-.07.65-.29.86,1.22,1.08,2.16,2.38,3.89,2.88-.07-.29.29-.14.36-.36-.14-.07-.29-.14-.22-.43.07-.07.22-.07.36-.07.07-.29-.14-.36.07-.22.22-1.01.94-.94.94-1.94-.58-.36-.72.36-1.22.29ZM128.49,57.68c0,.36-.5.14-.43.58.36,0,.58-.07.72-.14,0-.22-.22-.22-.29-.43ZM130.65,48.32c0,.29-.14.5-.43.5-.14-.22-.65-.07-.86-.07.14.14.29.22.29.5-.22.22-.29,0-.5,0,.07.65-.86.65-1.08,1.37.43.22.94-.22,1.15-.5.36,0,.29.22.14.43.29.14.86-.07,1.01-.36-.14,0-.29,0-.29-.07.14-.22.36-.07.58,0,.43-.58.86-1.44.72-2.09-.36-.07-.36.58-.72.29ZM128.06,51.84c0,.22.07.43.29.5-.07-.5.43-.36.43-.72-.36.07-.36.22-.72.22ZM129.07,47.45c-.29.22-.22.79-.58.86,0-.43.22-.65.29-.94h.22l.07.07ZM129.36,41.26c-.5,0-.58.43-.79.65.43-.29,1.44-.79,1.66-1.51-.5.07-.72.43-.86.86ZM129,54.08c0,.29-.5.5-.07.65-.07-.36.14-.22.22-.07,0-.07.07-.14.14-.14-.07-.22-.07-.43-.29-.43ZM129.21,51.2h-.43c.14.22.22.36.43.43v-.43ZM130.58,57.1c.22.79-.79.36-1.08.58.14.29.5,0,.58.22-.22.22-.29.29-.58.14.22.5-.36.58-.58.86.07,0,.07.14.07.22.43,0,.72-.14,1.01-.22-.14-.22.29-.43.58-.5-.07-.65,1.01-.72,1.08-1.44-.43-.29-.65.22-1.08.14ZM131.37,59.33c-.07.58-.58.79-1.22.86.22.65-1.01,1.22-1.22,1.94.29-.07.29,0,.58.07,0-.5.29-.07.43-.43.43-.07.65.07,1.01.07.22-.22.07-.72.29-.94.07,0,.14.07.29.07,0-.65.72-.94.43-1.66-.29.07-.36.14-.58,0ZM129.14,47.09c.14-.14.5.14.58.36-.36.07-.29-.29-.58-.36ZM129.65,53.79v.36c.43.07.65,0,.94,0-.07-.5.36-.43.5-.72-.58-.58-.79.36-1.44.36ZM130.08,46.52c.14,0,.29,0,.36-.14.22.07-.07.22,0,.36-.22,0-.36,0-.36-.22ZM130.15,48.46c.22.14.36-.07.43-.29-.22.07-.43.07-.43.29ZM130.22,59.69c0,.29.5.36.43,0-.22,0-.22-.14-.43,0ZM130.44,40.32c.43-.14,1.37-.72,1.01-1.22-.5.29-.72.86-1.01,1.22ZM130.51,59.26c.29.07.5.07.43-.29-.14.07-.5,0-.43.29ZM130.51,64.59c.36.07.58-.14.72-.43-.43,0-.79,0-.72.43ZM131.23,63.37c-.22.07.14.36-.14.29,0,.22.07.5.36.43-.14-.36.14-.58-.22-.72ZM131.23,63.08c.22-.07.07.29.29.22-.07-.29.14-.22.14-.36-.07-.07-.43-.14-.43.14ZM131.59,38.96c.43.07.79,0,.72-.43-.43-.07-.65.07-.72.43ZM131.66,63.58c.43.07.5-.14.79-.14.07-.22.14-.29.14-.58-.43.14-.94.22-.94.72ZM131.88,40.32c.58-.29,1.44-.79,1.51-1.44-.5.5-1.01.94-1.51,1.44ZM135.69,68.77c-.07-.14-.22-.29-.14-.58-.14-.07-.36.22-.43,0,.22-.5.14-1.01-.22-1.3-.94.14-1.3.86-2.52.58.43.43,1.22.94,1.94.79.72.79,1.87.72,3.1,1.01-.29-.5-1.15-.94-1.73-.5ZM134.04,65.6c-.29.07-.43.29-.58.43.29,0,.58-.07.65-.29-.07,0-.14-.07-.07-.14ZM133.89,45.51c.07-.29.36-.07.5,0v.43c-.22-.07-.22-.36-.5-.43ZM133.89,66.46c0,.22.22.22.14.43.29,0,.43-.14.43-.5-.22,0-.29.14-.58.07ZM146.64,43.78c-.36-.07-.79-.07-1.01-.22-.14.14-.29.29-.5.36.29.36-.07.65-.14,1.15-.29.07-.14-.29-.36-.36,0,.36-.22.22-.36.14-.07.36.22.36.14.65-.43.22-.86.5-.86,1.15.65-.14,1.15-1.01,2.16-1.08.07-.22-.14-.14-.14-.29.36-.14.36,0,.58.14.29-.29,0-.65.14-.86.14,0,.14.14.36.14.14-.14,0-.65.22-.72-.14.07-.29,0-.22-.22ZM150.38,44.72c.14,0,.07.14.07.22-.29-.07-.14.29-.36.22-.29-.14-.72-.22-.79-.5-.36,0-.58.43-.72.29,0-.72.72-.5,1.3-.43,0-.72.79-.36.79-.94-.07-.22-.36-.29-.43-.58-.58,0-.94.65-1.51.22-.07.29.29.07.22.43-.29.22-.43.5-.94.36,0,.14.07.22.07.36-.22,0-.29.14-.5.22-.07-.07-.07-.29-.29-.22,0,.22.22.43-.07.5-.43-.29-1.01.65-.14,1.08-.14,0-.07.22-.22.22-.43-.36-.86-.07-1.3.07-.29-.36-.94.07-.86.43.22-.07.43-.14.58-.29-.43.22-.36.86-.72.72.43.5,0,.86.29,1.22.29.07.29-.14.58-.07.14-.5,1.15-1.15,1.58-.65-.07.14-.29.29,0,.36.36-.43,0,.14.29.22-.07-.36.14-.43.07-.72-.07-.14-.5,0-.5-.22.22-.29.58-.36.86-.5.07-.29-.29-.14-.29-.36.29-.14.5-.43.79-.58.07.36.36.36.43.72-.36.22-.29.36-.72.14,0,.5-.5.5-.22,1.08.36.07.36-.22.72-.22.86.29,1.3-1.15,2.3-1.3.07-.5-.22-.65-.36-.94.14-.14.5-.22.5-.5-.22.07-.36-.36-.5-.07ZM144.98,42.7c-.14.5.86.58.94.36-.22-.22-.65-.22-.94-.36ZM145.63,47.09c-.22-.07-.36-.14-.5-.22.14-.36,1.01,0,.94-.58.5.36-.5.43-.43.79ZM145.99,44.57c-.43.14-.58-.36-.36-.65.14,0,.14.14.14.36.14-.14.29-.22.58-.22-.07.36-.65.07-.36.5ZM149.66,40.68c-1.51.58-2.52,1.66-3.6,2.74.29.07.36-.07.58-.07,0,.22,0,.43.22.43.22-.22-.07-.36-.07-.58.5,0,.5-.07.94-.22.14.22,0,.29.14.43.14-.07.22-.29.43-.29-.22-1.01.86-.5,1.22-.79-.22-.07-.36-.22-.36-.43.22-.07.14.14.36.07.07-.14.07-.36.36-.36-.07-.36-.14-.65-.22-.94ZM146.28,48.32c.22,0,.29-.29.29-.58-.29-.29-.58.36-.29.58ZM147.29,45.65c.07-.22.14-.43.5-.43-.22.22.14.36,0,.65-.29,0-.22-.29-.5-.22ZM147.5,38.24c.22.43.07.94.29,1.44.22-.14.36-.36.65-.58-.07-.5-.58-.58-.94-.86ZM147.93,44.93c-.07-.22.29-.07.22-.29.22.07,0,.43-.22.29ZM149.01,45.65c.14.14.07.36.36.36-.07.22-.43.14-.86.14.29-.5-.5-.43-.43-.86.14.14.36,0,.43-.14.14.07.22.36.07.43-.07.22.22.14.22.29.29-.07.14-.22.07-.43.14,0,.29-.14.36-.29.36.22.72,0,1.08.22-.22.5-.94.22-1.3.29ZM151.9,56.81c.29,0,.29-.22.36-.43-.29-.07-.43.29-.36.43ZM152.18,59.91c0-.65.58-1.58.29-2.02-.14.5-.94,1.73-.29,2.02Z"/>
      <path class="cls-1" d="M193.22,47.88c-.14,0-.14.14-.29.14.22.22.5.29.72.43-.22.29-.58.5-.79.79.36.5-.07,1.37.07,1.94.22,0,.36-.07.36-.29.07.22.22.36.36.43.07,1.08-1.08,1.01-1.01,2.16h-.22c-.07.65-.07,1.37-.36,1.8,0,.14.14.07.29.07-.07,1.01-.72,1.37-1.08,2.02-.07.29.22.14.14.43-.86,1.15-1.51,2.59-1.94,4.25-1.66,1.58-2.66,3.74-4.9,4.68-.14.07-.07.22-.07.36-.94.14-1.94.79-3.02,1.15-.58-.14-.65-.79-1.15-1.01-.07.79-.94.86-1.01,1.66-.79.94-2.45.65-3.38,1.22-.22-.07-.43-.14-.65-.29-.29.14-.5.29-.86.36-1.87-.43-3.82-.79-5.47-1.44-.14-.14.07-.29-.07-.43-.65.22-.86-.36-1.37-.14-.14-.43-.86-.36-.94-.94-1.44-.22-1.94-1.37-3.17-1.8-.14-.29-.29-.5-.43-.79-.43,0-.79-.22-.79-.72-.36.07-.5-.43-.86-.5-.5-1.58-1.8-2.3-2.38-3.89-.36-.07-.72-.14-.94-.29.07-.36-.07-.86.43-1.01-.58-.43-.07-1.8-.72-2.16.22-.72-.07-1.22.07-1.8-.5-.22-.5-1.15-.07-1.37-.07-.79-.07-1.08,0-1.73-.29-.43-.79-.07-.94-.65-.07-.79,1.51-1.22,1.66-1.94-.72-.94.36-1.8.72-2.66-.43-.29-1.3.43-1.66-.22.07-.29.5-.29.36-.79.07-.07.22-.14.36-.07.94-.94,2.38-1.37,2.45-3.1.65-.72,1.3-1.51,2.16-1.8-.07-.07-.22-.14-.07-.14.14-.29.43-.5.72-.72.22-1.58,1.94-1.58,2.45-2.88.14-.14.07,0,.36,0,1.15-1.51,3.46-1.94,5.18-3.1.5.07,1.22-.5,2.09-.43.36,0,.65.29,1.01.07.72.72,2.38-.14,3.38.5,1.01-.22,1.15.43,2.09.36.14.65.72.22,1.08.29.86.07,1.22.72,1.94,1.01.07.07.29-.07.36-.07.29.07.72.58,1.15.72.72.29,1.51.58,2.3.79.14.79.29,1.66,1.15,1.66-.14,1.08.79,1.15,1.01,1.87.29.07,1.08-.22,1.22.29-.22.14-.65,0-.58.36.29.14.79-.29.94-.58.22.07.36.14.43.43-.22.36-.5.5-.72.86.22.29.29.65.43,1.01.29,0,.22-.22.5-.07.07.29-.29.22-.07.43.29.07.58-.07.79.22-.36,1.37.72,2.95.79,4.54.72-.22.65.36,1.15.5-.14.29-.58.14-.72,0ZM166.51,45.15c0,.22,0,.43-.14.43-.5-.22-.43.58-1.15.36-.58.79-1.94.86-2.45,1.73-.36-.22-.36.07-.65.14,0-.14-.07-.22-.14-.22-.07.07-.14.22-.36.22.07.22.07.43.22.58.07-.36-.22-.65.29-.58v.22c.65-.29,1.15-.5,2.02-.72-.07.22.22.07.22.29-.72.58-1.58.43-2.09,1.08h-.5c-.43.94-1.73.79-2.45,1.37-.72.58-.72,1.51-.79,2.59.14.07.22.22.43.22.14-.36.65-.36.72-.72.22.22.5-.07.72,0,.07-.72.86-.65,1.22-1.08-.29.86-1.15,1.08-1.8,1.66,0-.07-.14.5-.43.22,0,.58-.43.72-.79.94-.07.5.07.79.29,1.01,1.01-.58,2.09-1.58,3.17-1.66-.07-.07-.36,0-.36-.14.22-.29.58.07.72-.07-.07-.07-.14-.14-.14-.29.36,0,.43-.22.79-.43,0,.29.14.29.14.5.29,0,.58-.43.29-.5.07.22-.29.36-.36.14.07-.29.5-.22.58-.29-.07,0-.14-.07-.14-.14.5-.14.72-1.22,1.44-.79,0-.43.29-.29.58-.22,0-.22-.14-.29-.14-.43.43,0,.36-.5.65-.58.14,0,.07.22.22.22,0-.14.22-.07.14-.29-.07-.14-.43,0-.5-.14.14-.5.72-.22,1.08-.36.07-.36-.29-.22-.29-.58.22.07.29,0,.43-.07,0-.43-.43-.36-.43-.79.36-.36.58-.86.36-1.3-.43.07-.58.07-.94-.07-.14.65-1.44.29-1.8.79,0-.07-.07-.07-.07-.14.22-.22.5-.43.86-.29.14-.14-.14-.36.14-.43.79.22,2.16-.5,2.02-1.51-.43,0-.36.36-.79.14ZM166.65,52.64c.14-.36-.36-.07-.22-.36.22.07.22-.07.36-.07-.14-.5.86-.79.36-1.51-.72,0-1.01.36-1.51.29-.07.65-.79.86-1.15.94-.29.36-1.01,1.3-1.8,1.08.07.22,0,.5-.29.5,0-.14,0-.29-.14-.29-.07.14.22.36,0,.43-.14,0-.07-.22-.29-.14-.14.14-.07.58-.36.65,0-.22-.29-.07-.36-.07-.07.36-.29.58-.86.43.07.65-.5.22-.58.72.58-.29,1.3-.43,1.8-.79.14.07.29.07.36.22-.29.07-.58.43-1.01.5-.29.07-.79-.36-.79.14.29.14.14-.22.43-.14-.07.29.22.14.14.43-.22.22-.65.29-1.08.29.07.43-.14.29-.43.22-.5.43-.07,1.3.36,1.44,1.73-1.15,3.6-2.09,5.26-3.31.14.07.07.43.29.43.22-.22-.14-.29-.14-.5.29.07,0-.29.22-.29.29.07.29-.14.58-.07.29-.65,1.01-.79,1.37-1.37-.29,0-.22.29-.5.22ZM165.36,43.28c-.22.86-.94.79-1.66,1.15.14.07.14.14.07.29-.36-.22-.36.29-.79.29-.14-.07-.22-.22-.22-.36q.29-.14.72-.22c0-.29.22-.43.22-.79-.22.07-.43.14-.58,0-.86,1.01-2.59,1.01-3.1,2.3.14.07.29.14.58.07-.07-.22-.07-.14,0-.36,1.08-.07,1.37-1.08,2.3-.58-.29.58-1.15.58-1.44,1.15-.29-.14-.86-.43-.94,0,.07.14.29-.22.36.07-.14,0,0,.29-.07.36-.43.14-1.15.36-1.01.72.22-.29.43-.07.86-.07.14-.07-.07-.29.07-.29.29,0,.5-.36.65.07-.58.5-1.58.65-1.94,1.37.36-.07.58.22.94.29.07-.22-.22-.07-.14-.36.29-.07.36.14.5,0,.07-.43-.43-.07-.5-.29.07-.14.36-.22.65-.22-.07.07-.22.36.07.29,0-.29.14-.94.58-.5.14-.72,1.22-.5,1.58-.94,0,0-.43-.14-.14-.29.14,0,.07.22.22.14.58-.43,1.3-.43,1.8-.79-.29-.22-.79-.29-1.22-.14,0-.14-.07-.14-.07-.36.43.36,1.08-.43,1.51-.29,0,.22-.29.36-.07.58.22-.43.79-.5,1.01-.94-.07-.29-.36.14-.43-.14,0-.07.07-.14.22-.22.36.29.86.14.86-.29.5-.22.79-.58.72-1.3-.94-.07-1.37.43-2.16.58ZM166.44,55.37c-1.01.58-1.87,1.22-3.02,1.3,0,.43-.65.36-.86.36-.07.29.36.07.29.36h-.5c-.5.79-1.73.94-2.23,1.73.29.07.36.36.58.58,1.51-.86,2.88-1.87,4.46-2.66.22-.43,1.15-.79,1.51-1.37-.07-.07,0-.29-.22-.29ZM160.82,48.53v.22c.22,0,.5,0,.58-.22-.22-.07-.43-.14-.58,0ZM162.55,43.06c-.07,0-.14-.07-.29-.07-.14.72-.86.79-1.3,1.15.43.29.72-.5,1.22-.22.29-.5.94-.58,1.44-.86,0,.22.07.29.29.29.07-.65.5-.79.94-.5.07-.29-.36-.07-.36-.29,1.22-.36,1.8-1.01,3.24-1.3.14-.29.29-.72.14-1.15-2.23.58-3.46,2.02-5.33,2.95ZM162.33,46.73c-.43,0-.5-.07-.65.29-.14,0-.07-.22-.29-.14.07-.36.72-.5,1.01-.36,0,.07-.07.14-.07.22ZM166.29,61.28c0,.29-.36.58-.94.5,0,.36-.58.5-.79.36-.29.5-.86.72-1.66.65-.22-.36-.36-.5-.22-1.01.72-.29,1.08-1.3,1.94-1.22.36-.72,1.22-.72,1.44-1.44.22-.07,0,.36.29.22-.07-.72,1.15-.58.79-1.37-1.3-.07-2.02,1.3-3.89,1.3.36.29-.36.36-.22.72-.72.14-1.01.58-1.58.86.29,1.58,1.44,2.38,2.45,3.31.65-.36,1.22-1.15,2.09-.72.14-.43-.14-.43-.22-.65.58-.43,1.3-.72,1.51-1.51-.43-.22-.65-.14-1.01,0ZM162.55,56.09c.22.29.14.5.36.65.14-.22.07-.72-.36-.65ZM162.69,54.08c0-.29.58-.22.72-.14-.14.22-.5.22-.72.14ZM168.67,37.66c-1.66.5-2.74,1.73-4.25,2.3-.65.29-1.22.65-1.37,1.37,1.37.07,2.09-.86,2.88-1.37.5-.29,1.15-.22,1.51-.79.65-.07.86-.58,1.3-.79-.14-.29-.14-.36-.07-.72ZM163.48,56.09c.07.07.5.22.5,0-.29.07-.43-.36-.5,0ZM167.3,53.57c-.79,0-1.44,1.51-2.3,1.22-.07.58-.94.65-.86,1.08.58-.29,1.37-.5,2.02-.79-.14-.07-.22.22-.29,0,.36-.5,1.15-.58,1.51-1.01-.22-.14-.07-.22-.07-.5ZM164.13,51.99c.07.07.36.07.36-.07-.07-.14-.36-.14-.36.07ZM167.16,56.6c-1.01.22-1.44.86-2.3,1.37.94.36,1.51-.65,2.38-.86.07-.29-.14-.29-.07-.5ZM165,42.92c0,.22.07.29.29.36,0-.07.07-.14.14-.07.07-.29-.22-.29-.43-.29ZM165.64,60.41c-.07.29-.58.07-.5.36.14.14.43.14.65.07-.07-.14.07-.5-.14-.43ZM165.36,49.54c.36,0,0,.29.07.5-.36,0-.14-.29-.07-.5ZM167.59,64.01c-.79.07-1.51.65-2.16,1.15.79.72,1.87,1.01,2.74,1.58-.29-.94-.07-1.87-.58-2.74ZM165.57,52.85c0-.22.29-.07.36,0-.07.29-.29.07-.36,0ZM165.93,37.95c.36.07.43-.14.5-.36-.36-.07-.36.22-.5.36ZM166.72,59.69c-.07.29-.22.29-.07.58-.29.14-.65.14-.72.5.43-.22.94-.29,1.15-.72-.14-.07-.14-.36-.36-.36ZM166.37,63.58c.36-.07.65-.22,1.08-.29-.07-.22.14-.29.07-.5-.36-.29-1.3.36-1.15.79ZM169.61,35.5c-.94.58-1.87,1.22-3.02,1.58,0,.22,0,.36-.07.5,1.51-.29,2.52-1.08,3.53-1.87-.14-.07-.22-.22-.43-.22ZM182.49,51.99c0-.14.29-.07.22-.36-.07-.07-.29,0-.22-.22.07-.29.29-.5.65-.58,0-.58.14-1.15.14-1.73-1.08-.72.29-1.44-.14-2.66-1.01.36-2.45.36-1.8-.94.94-.29,1.8-.86,1.44-2.09-.22-.14-.36-.22-.72-.22,0-.36-.14-.5-.22-.86.5-.43.58-1.01.58-1.73-.29-.22-.65-.36-.79-.65-.22-.36.22-.58.22-.86,0-.43-.36-.58-.58-.94-.07-.22,0-.43-.07-.58-.14-.29-.43-.58-.58-.79,0-.14.07-.29,0-.43-.22-.58-.94-.65-1.08-1.08-1.44.14-2.66-1.22-4.32-.36-.43-.29-1.01-.22-1.37.07h-.43c-.65.14-1.01.72-1.58,1.08-.58.43-1.58.5-1.66,1.51-.14,0-.43-.14-.43.07,1.01-.07,2.02-.58,2.95-.94.22.22.43.72,0,.94-1.3.5-2.88.79-3.38,2.16-.14.07-.29.22-.43.22.07.43.29.65-.07.86.36-.07.79-.43,1.15-.07-.36.43-.72.79-1.3,1.01-.22.36-.07,1.01-.29,1.44.36,0,.65,0,.86-.07.07.07.22.14.14.43-.36.43-.79.79-1.3,1.01,0,.29.22.29.14.65.65.07,1.01-.14,1.44-.07-.29.14-.29.5-.36.65-.58-.36-.86.58-1.37.5.07,0,.14.07.22.14-.58.43.07,1.37-.14,1.94.58.14.79-.36,1.44-.36,0,.43.29.43.14.94-.58.07-1.01.79-1.66,1.08.36.36,0,1.01.29,1.37.22-.29,1.66-.22,2.02-.29.14.79-1.08,1.22-1.73,1.22-.14.36.14.36.14.58-.14.14-.36.22-.5.36.22,0,.07.29.07.43.43.22,1.37-.14,1.51.5.22.86-1.94,1.22-1.66,2.45.29-.07.36.14.5.22.14-.22-.14-.36.14-.43.22.14.58.14.65.5,0-.22,0-.36.14-.36.14.14.58.07.65.36-.36,1.15-1.87,1.15-1.94,2.59.65.14,1.44-.36,1.73.29.14-.14-.14-.29.07-.36.22,0,.29.14.29.43-.29.29-.5.65-.86.94,0-.22.14-.36-.07-.36.07.22-.29.07-.36.22,0,.14.14.14.07.29-.29,0-.29.29-.58.36-.07.22.22.07.22.29-.14.14-.14,0-.43,0,.07.36.29.5.36.86.43.07,1.01-.36,1.37,0-.22.43-.94.36-1.3.58.07.43-.07,1.01.14,1.44.22.14.43,0,.72.07-.29-.65.36-.86.65-1.15.14.07.36.07.43.29-.22.29-.5.36-.72.58.14.43-.5.65-.5,1.08.22-.07.58-.07.72.07.07.36-.22.36-.14.65,1.3,1.22,2.95,2.74,5.54,2.38,1.73-.22,3.24-1.22,4.32-2.09.72-1.3,2.02-2.66,2.52-4.25.07-.36,0-.72.14-1.15.07-.29.36-.5.43-.79.07-.79-.07-1.8.07-2.74.07-.5.29-.86.14-1.44-.22.07-.29,0-.43-.07,0,.29-.14.36-.36.43-.5,0-.86-.36-1.08-.86.79-.94,2.45-1.22,1.94-2.95-.36-.29-.65-.22-.79-.65ZM168.17,60.99c.22.07.43-.43.07-.36.07.14-.14.14-.07.36ZM169.97,45.15c.07,0,.07.07.14.07s.14-.07.14-.14c.29.07.07.29,0,.43,0-.22-.36-.07-.29-.36ZM170.04,62.36c-.07-.14,0-.22.07-.29.07,0,.14.14.22.14,0,.14-.14.14-.29.14ZM170.54,63.44c-.14-.22.14-.5.29-.65-.07-.22-.5-.07-.72-.07,0-.29.29-.29.29-.5.43,0,.79.07,1.01.22-.22.36-.14,1.01-.86,1.01ZM189.62,58.11c-.22.07-.29.14-.58.07,0,.58-.14,1.01-.65.79,0,.5-.58.43-.79.65,0,.14.07.22.07.36-.36-.07-.58.07-1.01.22-.07.29.5.29.29.43-.14-.14-.14-.07-.14.14-.72.14-1.37.43-1.51,1.08-.58.22-1.15.43-1.15,1.22-.58.22-.65,1.01-1.51.79-.14.79-1.08,1.08-.94,1.87-.36.14-.58.86-.58,1.15,4.25-1.15,6.7-4.1,8.35-7.92-.14-.14-.29-.14-.29-.43.22,0,.29.14.43,0v-.43ZM181.56,35.64c0,.79.65.86,1.01,1.3.29.07.07-.29.36-.14.14-.07.14.07.22.14-.14-.36.07-.43.07-.79-.58-.14-1.15-.58-1.66-.5ZM182.71,37.3c.22.65,1.08.43,1.08-.22-.5-.29-.65.5-1.08.22ZM186.38,38.67c-.22,0-.43.07-.43-.14.14,0,.29-.07.43-.14.07-.72-.86-.58-1.3-.43-.36.79-1.3.43-1.58,1.3.36-.07.36.14.65.07,0-.22.07-.36.29-.29-.14.36.22.29.29.43-.5.36-1.15.5-1.66.86.07.29.07.72.43.79.22-.14.29-.43.5-.58.36.36.43-.43,1.08-.22-.07-.43.43-.36.58-.58-.14-.36.14-.29.29-.5-.72.07-.72-.22-1.22,0,0-.07-.07-.07-.07-.14.07-.07.07-.22.14-.22.79-.14,1.15.29,1.8.29,0-.22-.22-.22-.22-.5ZM183.07,37.95c0,.22,0,.43.29.36,0-.22-.07-.36-.29-.36ZM184.58,37.52c-.5.07-1.08.07-1.08.79.36-.22.72-.29,1.15-.36.07-.22-.14-.22-.07-.43ZM190.56,53.72c0,.36-.43.36-.86.58.07.72-1.01.94-1.73.94.14.14.65.29.43.43-.29.07-.22-.29-.58-.14-.14.36-.43.58-.58.86-.29,0-.43-.07-.58-.07-.07.36-.72.07-.72.36.07.36.43-.07.65.14-.07.22-.29.14-.22.43.22.29.58-.14.72.07-.29,0-.36.22-.58.22-.14.43-.22.79-.72.72-.43.65-1.08,1.01-1.8,1.3-.29.29-.07,1.08-.5,1.3.22.14.07.5.29.65,1.73-.65,2.88-2.3,4.75-2.95.07-.58.43-.86,1.08-.79-.14-.58.58-.79.79-1.15-.07-.14-.29-.14-.36-.29.07-.22.65-.22.43-.43-.5.07-1.01.36-1.3.14.5-.29,1.22-.36,1.73-.72-.07-.65.29-.86.29-1.44-.22-.14-.36,0-.65-.14ZM191.71,46.3c-.36.14-.65-.07-.72.07.07,0,.07.14.07.22-.86.07-1.37,1.44-2.38,1.22-.14.29-.22.58-.5.72-.22-.14-.22-.22-.5-.07.07.79-1.22.86-1.37,1.66.22-.5-.14-.43-.22-.79,0-.14.22-.14.29-.22.07.22.29.14.5.14,0-.29-.29-.14-.29-.43.94-.22,1.37-1.44,2.52-1.22.22-.29,0-.86.58-.94-.07.14-.07.22,0,.36.36,0,.65-.07.65-.43-.22-.22-.29.22-.5,0,0-.07.14-.14.14-.22-.29-.22-.86.14-1.01-.14.36-.14.72-.22,1.08-.29v.43c.22.07.65.14.65-.14.07-.22-.43.07-.36-.22.07-.29.5.14.72-.14-.07-.14-.58.07-.65-.14.29.07.43-.29.65-.07.07-.29.29-.36.29-.72-.22-.29-.29-.72-.43-1.01-.36-.07-.29.14-.5.22,0-.22-.29-.07-.22-.36.14-.29.43-.58.07-.79-.36,0-.43.29-.72.29.07-.22.22-.29.43-.36.14-.94-.72-.94-1.44-.86-.14.14-.14.43-.36.5-.07-.22-.43-.43-.14-.65.22-.07.14.14.29.14.22-.29.36-.58.5-.86-.14-.29-.5-.36-.65-.58-.36-1.51-1.73-.65-2.59-.22.22-.07.29.07.29.22-.5.22-1.01.36-1.37.29-.14.36.14.36.14.58.58.22,1.66-.29,1.22.36-.29-.5-.43.14-.79.07,0-.14-.07-.29-.14-.36-.29.29-.29,0-.58-.07-.22.14-.43.22-.5.43.29.07.36-.14.5-.29.14.22-.07.14-.14.29.22.14.29-.07.58,0,.07.14.22.22.14.36-.5.14-.86.58-1.3.72.07.29-.07.36,0,.65.14.07.14.29.36.36,1.22-.29,2.23-1.37,3.46-1.66.14-.29-.36,0-.36-.22.43-.22.72.22.94.43-.22-.07-.14.22-.29.22s0-.22-.14-.22c-.22.22,0,.07,0,.43-.72.14-.94.29-1.44.5-.07.14.07.43-.07.5.07-.22-.14-.22-.22-.29-.36.36-.36.58-.65.79.14.14.07.36.14.5-.58-.07-.79.72-1.37.86-.07.5-.07.72.07,1.08.43-.22.79-.36,1.15,0,.14-.22-.07-.22-.14-.36.36-.14,1.15,0,1.3-.43-.29,0-.58.07-.79,0,.5-.43,1.3-.5,1.8-.86-.07.22-.14.36.14.36.07-.14-.07-.5.07-.58.29.07.36.36.72.36.07-.36-.36-.29-.36-.5.29-.07.22-.07.5,0,.14-.36.43-.65.72-.29.22-.22,0-.29-.07-.43.14,0,.14-.14.22-.14.22.07.36.22.43.36-.22.07-.29.29-.5.43-.79-.07-.43,1.01-1.51.72-.07.29-.29.43-.5.58,0-.29-.14-.36-.36-.43-.22.22.07.22.14.29h-.29c0,.22.07.22.07.36-.72.36-1.08.72-2.02,1.01v.36c.22.14.58,0,.79,0-.07.22.22.14.22.36-.86.07-1.3.79-1.8.94.14.22.14.5.07.79.58.07,1.01-.14,1.44-.36-.07.36-.14.65.29.65.07-.22-.36-.29-.14-.36.29.14.5-.14.58.14-.29.14-.14.43-.07.86-.14,0-.14.14-.22.14-.36-.07-.14-.43-.29-.65-.29.14-.58.14-.94,0,0,.22.14.29.14.43.29.07.43-.07.65-.07.07.22-.36.29-.07.43,0-.14.29-.14.36,0-.58.22-.79.72-1.37.94-.14.36-.22.79-.36,1.15.14.14.36.07.36.36-.22-.07-.29,0-.29.22.65.22.65-.79,1.44-.72.07-.72,1.66-.79,1.15,0-.14,0-.43.07-.36-.14-.43.14-.43.72-.94.86-.07-.29.14-.22.22-.36-.22-.36-.29-.07-.5.07,0,.14.07.29.14.43-.07.14-.29.14-.5.07.29.43-.29.29-.29.65.22.22.43,0,.65-.14,0,.14.07.14.07.36-.22-.07-.36,0-.43.07,0,.14.14.14.07.36-1.01.29-.43,1.58-.79,2.23.29-.36,1.15-.43,1.15-.86.36-.07.65-.29,1.08-.29,0-.65,1.22-.65,1.44-1.3.58.07.65-.29.94-.43.07.07,0,.29.22.29.22-.29-.22-.29-.14-.5.36.07.36-.22.72-.22-.14-.43.36-.65.72-.79.07.07.29.36.43.14-.58-.22.29-.79.5-.65,0-.58.22-.58.5-.94-.22-.07-.22-.22-.43-.22-.22.07-.22.29-.5.29-.07-.14-.29-.07-.22-.29,1.15,0,1.73-.79,1.37-1.87-.36-.07-.58.14-.94.07-.29.5-1.01.86-1.58.86.14,0,.22.14.22.29-.5.14-.58.79-1.3.65-.07.36-.36.5-.72.58.07-.29-.14-.29-.22-.36-.14.22-.43.22-.65.29.29-.43.79-.72,1.51-.58-.07-.22.14-.14.22-.07,0-.14,0-.22-.07-.29.36.07.36-.22.36-.5.43,0,.86-1.37,1.8-.79-.07-.22-.07-.58.58-.5-.14-.43.58-.58.65-1.08-.43-.29.14-.65.22-1.01-.29-.22,0-.72-.22-1.08ZM183.86,62.07c0,.29.58.36.5-.07-.29-.07-.36.07-.5.07ZM183.93,37.23c.22.07.86.14.86-.22-.22-.29-.94-.36-.86.22ZM184.44,50.84c0,.14-.07.22-.07.22.22.14.65.29.72-.14q-.43.07-.65-.07ZM184.58,57.96c.22.07.29.22.58.22.22-.14.5-.29.22-.65.29,0,.22.29.5.29,0-.22.14-.29.22-.43-.79-.29-.94.36-1.51.58ZM185.52,44.72c.14-.22.72-.14.58.22-.29,0-.36-.14-.58-.22ZM185.95,47.81c-.07-.07-.07-.22-.07-.36h.5c-.07.22-.14.36-.43.36ZM186.74,50.69c-.22-.07-.36-.14-.43-.43.5-.07.79-.36,1.15-.5.07,0,.14.14.22.14-.14.43-1.08.22-.94.79ZM186.53,41.4v-.22c.14-.14.36.22.43-.29.22,0,.29.07.29.29-.29,0-.43.22-.72.22ZM187.1,52.71c-.07-.22.07-.29-.07-.5.14,0,.29.36.36.07.14,0,0,.29.07.43h-.36ZM187.46,57.68c-.22,0-.07-.36-.22-.36,0-.07.14-.07.29-.07-.07.07-.14.22-.07.43ZM187.32,40.83c0-.43.5.07.65-.36.29.07,0,.36,0,.58-.29-.36-.43-.14-.65-.22ZM187.82,49.54c0-.22.43-.14.5-.07-.07.14-.36.22-.5.07ZM188.4,57.03c.07-.29.29-.29.29-.58.36.07.07.58-.29.58ZM189.05,56.67c0-.36.72-.43.79-.07-.14,0-.5.29-.79.07ZM189.26,49.25c-.22-.14-.14-.58.22-.58-.29.43.36.14.5.07-.07.43-.58.22-.72.5ZM189.84,44.07c.29-.07.5.14.36.29-.22,0-.36-.07-.36-.29Z"/>
    </g>
  </g>
</svg>